<?xml version="1.0" encoding="UTF-8"?>
<svg version="1.1" xmlns="http://www.w3.org/2000/svg" width="207" height="220">
<path d="M0 0 C68.31 0 136.62 0 207 0 C207 72.6 207 145.2 207 220 C138.69 220 70.38 220 0 220 C0 147.4 0 74.8 0 0 Z " fill="#FDFDFD" transform="translate(0,0)"/>
<path d="M0 0 C1.72018828 -0.01670722 3.44030318 -0.04418607 5.16015625 -0.08203125 C7.67792639 -0.13683791 10.19411627 -0.15865458 12.71240234 -0.17333984 C13.47499359 -0.19600922 14.23758484 -0.21867859 15.02328491 -0.24203491 C19.01810306 -0.22625702 21.49474106 0.18682051 24.68359375 2.6953125 C27.18896484 5.35009766 27.18896484 5.35009766 27.75146484 8.35009766 C27.11074536 11.76726826 26.41989815 13.67297768 24.18896484 16.35009766 C19.03874257 18.63576122 14.18811682 18.66016225 8.66162109 18.69384766 C7.75447861 18.70847046 6.84733612 18.72309326 5.91270447 18.73815918 C3.02566888 18.78446223 0.13869937 18.81876968 -2.74853516 18.85009766 C-6.54956398 18.89141664 -10.35012393 18.94514543 -14.15087891 19.00634766 C-15.44650002 19.01426331 -15.44650002 19.01426331 -16.76829529 19.02233887 C-24.14381023 19.14285071 -30.38255411 20.49300903 -36.81103516 24.35009766 C-38.85192227 26.61162122 -40.45178027 28.63158789 -41.81103516 31.35009766 C-42.47103516 31.35009766 -43.13103516 31.35009766 -43.81103516 31.35009766 C-43.95541016 32.31947266 -44.09978516 33.28884766 -44.24853516 34.28759766 C-44.81103516 37.35009766 -44.81103516 37.35009766 -45.81103516 38.35009766 C-46.04804755 41.20887675 -46.23322697 44.04893063 -46.37353516 46.91259766 C-46.43831055 48.12206055 -46.43831055 48.12206055 -46.50439453 49.35595703 C-46.61078777 51.3537857 -46.71144404 53.35191835 -46.81103516 55.35009766 C-46.15103516 55.35009766 -45.49103516 55.35009766 -44.81103516 55.35009766 C-44.37404297 56.31109375 -44.37404297 56.31109375 -43.92822266 57.29150391 C-40.58077089 64.35483766 -37.21273143 71.03923137 -29.81103516 74.35009766 C-29.81103516 75.01009766 -29.81103516 75.67009766 -29.81103516 76.35009766 C-29.22708984 76.62208984 -28.64314453 76.89408203 -28.04150391 77.17431641 C-25.84430894 78.33255754 -24.06481992 79.62015127 -22.12353516 81.16259766 C-17.92861203 84.37791538 -13.48685104 86.90395324 -8.81103516 89.35009766 C-8.81103516 90.01009766 -8.81103516 90.67009766 -8.81103516 91.35009766 C-8.23353516 91.45322266 -7.65603516 91.55634766 -7.06103516 91.66259766 C-4.42506937 92.46803165 -2.94151531 93.60697753 -0.81103516 95.35009766 C3.8278641 99.08272189 8.58971654 102.61996067 13.39208984 106.13916016 C20.95407602 112.11693135 20.95407602 112.11693135 21.68896484 115.97509766 C21.10533103 118.74735829 20.49440941 119.72774777 18.18896484 121.35009766 C17.19896484 121.35009766 16.20896484 121.35009766 15.18896484 121.35009766 C15.18896484 122.01009766 15.18896484 122.67009766 15.18896484 123.35009766 C14.43873047 123.41326172 13.68849609 123.47642578 12.91552734 123.54150391 C5.67279826 124.40807729 1.2550074 126.20964199 -4.48291016 130.67041016 C-7.74498279 133.02391894 -11.01910305 134.06354926 -14.81103516 135.35009766 C-15.47103516 136.01009766 -16.13103516 136.67009766 -16.81103516 137.35009766 C-17.80103516 137.35009766 -18.79103516 137.35009766 -19.81103516 137.35009766 C-19.81103516 138.01009766 -19.81103516 138.67009766 -19.81103516 139.35009766 C-20.45041016 139.45322266 -21.08978516 139.55634766 -21.74853516 139.66259766 C-22.42916016 139.88947266 -23.10978516 140.11634766 -23.81103516 140.35009766 C-24.14103516 141.34009766 -24.47103516 142.33009766 -24.81103516 143.35009766 C-27.37353516 144.53759766 -27.37353516 144.53759766 -29.81103516 145.35009766 C-29.81103516 146.01009766 -29.81103516 146.67009766 -29.81103516 147.35009766 C-34.4354394 149.42636079 -38.91190026 151.05032717 -43.81103516 152.35009766 C-43.81103516 153.01009766 -43.81103516 153.67009766 -43.81103516 154.35009766 C-44.80103516 154.68009766 -45.79103516 155.01009766 -46.81103516 155.35009766 C-48.73739892 158.58638878 -49.79456183 161.26323829 -50.49853516 164.97509766 C-51.89025248 168.55379935 -52.25844757 169.03465948 -55.43603516 170.78759766 C-59.78320238 172.62708614 -63.12226274 172.72222245 -67.81103516 172.35009766 C-69.00728516 172.35009766 -70.20353516 172.35009766 -71.43603516 172.35009766 C-75.70570456 171.08501043 -77.26693266 169.37712758 -79.70947266 165.73291016 C-81.91824645 160.95506613 -81.55647324 156.31490821 -80.29541016 151.29931641 C-78.73740077 147.06913976 -76.72470726 144.51510776 -72.81103516 142.35009766 C-68.26288578 141.4259137 -64.25185898 140.86982305 -59.81103516 142.35009766 C-57.74958408 142.41908866 -55.68602114 142.43477492 -53.62353516 142.41259766 C-52.53685547 142.40357422 -51.45017578 142.39455078 -50.33056641 142.38525391 C-49.49912109 142.37365234 -48.66767578 142.36205078 -47.81103516 142.35009766 C-47.81103516 141.69009766 -47.81103516 141.03009766 -47.81103516 140.35009766 C-41.18603516 136.35009766 -41.18603516 136.35009766 -37.81103516 136.35009766 C-37.81103516 135.69009766 -37.81103516 135.03009766 -37.81103516 134.35009766 C-36.88291016 134.02009766 -35.95478516 133.69009766 -34.99853516 133.35009766 C-30.20052242 131.33453903 -26.27488221 128.13966333 -22.16650391 124.99462891 C-19.81103516 123.35009766 -19.81103516 123.35009766 -17.81103516 123.35009766 C-17.81103516 122.69009766 -17.81103516 122.03009766 -17.81103516 121.35009766 C-16.82103516 120.81384766 -15.83103516 120.27759766 -14.81103516 119.72509766 C-11.75309163 117.75341982 -11.75309163 117.75341982 -11.20166016 115.48681641 C-11.04762065 113.21473366 -11.15412498 111.5339977 -11.81103516 109.35009766 C-15.08746875 105.9212718 -18.76474901 103.75599753 -22.81103516 101.35009766 C-23.26478516 100.87572266 -23.71853516 100.40134766 -24.18603516 99.91259766 C-25.85698846 98.30591179 -27.41097122 97.39891323 -29.43603516 96.28759766 C-32.81103516 94.35009766 -32.81103516 94.35009766 -33.81103516 92.35009766 C-34.78041016 91.83447266 -35.74978516 91.31884766 -36.74853516 90.78759766 C-47.47294242 84.8516603 -55.48025609 75.3747567 -60.04931641 64.13525391 C-60.6748048 62.36204054 -60.6748048 62.36204054 -61.81103516 61.35009766 C-63.91389554 51.06944689 -64.3363305 38.00406105 -59.81103516 28.35009766 C-59.15103516 28.35009766 -58.49103516 28.35009766 -57.81103516 28.35009766 C-57.67930908 27.7696167 -57.54758301 27.18913574 -57.41186523 26.59106445 C-55.42645416 19.18590872 -51.61629822 14.63305315 -45.62353516 10.03759766 C-45.0015625 9.52648438 -44.37958984 9.01537109 -43.73876953 8.48876953 C-31.2580198 -1.33487074 -15.09531715 0.10730581 0 0 Z " fill="#88113A" transform="translate(113.81103515625,31.64990234375)"/>
<path d="M0 0 C4.41193506 2.42656428 8.46464995 5.60488719 11 10 C11.76805886 15.32878045 12.6101791 22.28598743 9.7578125 27.09375 C7.19062099 29.2905507 5.36950308 30 2 30 C2 30.66 2 31.32 2 32 C1.16855469 32.06058594 0.33710938 32.12117188 -0.51953125 32.18359375 C-1.60621094 32.26738281 -2.69289063 32.35117187 -3.8125 32.4375 C-4.89144531 32.51871094 -5.97039062 32.59992187 -7.08203125 32.68359375 C-10.05989905 32.90212461 -10.05989905 32.90212461 -13 34 C-13.35412344 35.32796291 -13.68521554 36.66216607 -14 38 C-15.4375 39.75 -15.4375 39.75 -17 41 C-17.66 41 -18.32 41 -19 41 C-19.36351562 41.86818359 -19.36351562 41.86818359 -19.734375 42.75390625 C-21.23187564 45.41150769 -22.93897847 46.95269409 -25.25 48.9375 C-26.05179687 49.63230469 -26.85359375 50.32710937 -27.6796875 51.04296875 C-29.56346324 52.63180991 -31.4616413 54.19719884 -33.375 55.75 C-37.37368318 59.17744273 -38.85427731 60.49419889 -39.375 65.875 C-39.20444215 69.85715503 -38.25665569 72.65392432 -36 76 C-35.24074219 76.45246094 -34.48148438 76.90492187 -33.69921875 77.37109375 C-26.42381784 81.76160341 -20.57956307 88.92249344 -16 96 C-15.27490234 97.09634766 -15.27490234 97.09634766 -14.53515625 98.21484375 C-12.67320603 101.59288574 -11.51889065 105.08531328 -10.375 108.75 C-9.27721282 113.22044443 -9.27721282 113.22044443 -7 117 C-5.56691808 129.50689672 -8.57378898 138.81536097 -14 150 C-14.66 150 -15.32 150 -16 150 C-16.11085938 150.56589844 -16.22171875 151.13179687 -16.3359375 151.71484375 C-17.58971648 156.02931848 -20.11962279 159.59177086 -23 163 C-26.25 164.75 -26.25 164.75 -30 166 C-32.6089629 167.30050437 -35.18613593 168.65388211 -37.765625 170.01171875 C-40 171 -40 171 -43 171 C-43 171.66 -43 172.32 -43 173 C-48.6877529 174.7837066 -54.84883316 174.26338344 -60.75390625 174.29516602 C-62.25139792 174.30672274 -63.74884723 174.32723276 -65.24609375 174.35668945 C-67.41434595 174.39932095 -69.58138106 174.41552316 -71.75 174.42578125 C-73.04421875 174.44036377 -74.3384375 174.45494629 -75.671875 174.4699707 C-79 174 -79 174 -81.41992188 172.11206055 C-83.23406403 169.68713103 -83.54107491 168.49846827 -83.5 165.5 C-83.5103125 164.7471875 -83.520625 163.994375 -83.53125 163.21875 C-82.77355352 160.05425295 -81.57242107 158.98614358 -79 157 C-76.31827524 156.65040594 -74.06062042 156.53076226 -71.390625 156.609375 C-70.66381531 156.61503479 -69.93700562 156.62069458 -69.18817139 156.62652588 C-66.87476755 156.64885447 -64.5629328 156.69903952 -62.25 156.75 C-60.67840784 156.77006977 -59.10679132 156.78831971 -57.53515625 156.8046875 C-53.68950283 156.84870707 -49.84501711 156.91770625 -46 157 C-46 156.34 -46 155.68 -46 155 C-45.31292969 154.79503906 -44.62585938 154.59007812 -43.91796875 154.37890625 C-43.01691406 154.10949219 -42.11585938 153.84007812 -41.1875 153.5625 C-40.29417969 153.29566406 -39.40085938 153.02882812 -38.48046875 152.75390625 C-34.60253032 151.8909409 -34.60253032 151.8909409 -32 149.25 C-31.67 148.5075 -31.34 147.765 -31 147 C-30.484375 146.154375 -29.96875 145.30875 -29.4375 144.4375 C-27.88141236 141.99345222 -27.88141236 141.99345222 -27 139 C-26.34 139 -25.68 139 -25 139 C-22.55810646 126.33391807 -22.60939689 112.85088415 -29.47265625 101.58203125 C-34.02071102 95.33517588 -40.5474696 87.4841768 -48 85 C-48.66 84.13375 -49.32 83.2675 -50 82.375 C-53.71879403 77.6929039 -58.95255332 75.05593711 -64 72 C-65.73682732 70.90792297 -67.46676196 69.80475645 -69.1875 68.6875 C-70.29158203 67.98173828 -70.29158203 67.98173828 -71.41796875 67.26171875 C-71.94003906 66.84535156 -72.46210937 66.42898437 -73 66 C-73 65.34 -73 64.68 -73 64 C-73.61875 63.690625 -74.2375 63.38125 -74.875 63.0625 C-76.25 62.375 -77.625 61.6875 -79 61 C-80.95670832 60.73758431 -82.91536271 60.48956446 -84.875 60.25 C-88.73242882 59.61172041 -90.62262068 59.29161129 -93.75 56.875 C-95.390376 53.10213519 -95.82574516 50.04696885 -95 46 C-92.8755173 42.55687286 -91.85147359 41.28382453 -88 40 C-84.9409634 39.61207869 -82.04973713 39.49836099 -79 40 C-76.65330692 42.57379241 -76.0890492 44.64380318 -75.25 48 C-73.18549265 52.95481763 -69.10670615 54.89397927 -64.5 57.3125 C-61.08662305 58.25117866 -58.52970302 58.4334723 -55 58 C-52.7515595 56.52670679 -50.98110621 54.8428895 -49 53 C-48.34 53 -47.68 53 -47 53 C-47 52.34 -47 51.68 -47 51 C-46.34 51 -45.68 51 -45 51 C-44.814375 50.1028125 -44.814375 50.1028125 -44.625 49.1875 C-44 47 -44 47 -42 44 C-39.375 43.8125 -39.375 43.8125 -37 44 C-36.80535156 43.30261719 -36.61070312 42.60523438 -36.41015625 41.88671875 C-34.48943728 37.95483143 -31.70326127 35.65641912 -28.4375 32.8125 C-24.17833814 29.34642513 -24.17833814 29.34642513 -21 25 C-20.94771461 22.81272805 -20.9080389 20.62514732 -20.875 18.4375 C-20.46817714 12.05300572 -19.09457711 8.50954651 -14.984375 3.671875 C-10.70476311 0.06621774 -5.484385 -1.16946445 0 0 Z " fill="#ECA82A" transform="translate(181,29)"/>
<path d="M0 0 C3.71640139 -0.27028374 6.457201 -0.180933 10 1 C10.33 1.99 10.66 2.98 11 4 C13.48328213 5.34231466 15.16635219 6.10420598 18 5.75 C20.3495055 4.86893544 22.68364262 3.96514891 25 3 C23.50079488 6.11373372 21.91847864 9.12228205 20 12 C19.34 12 18.68 12 18 12 C17.87882812 12.91523438 17.75765625 13.83046875 17.6328125 14.7734375 C17.46523438 15.96195313 17.29765625 17.15046875 17.125 18.375 C16.96257813 19.55835938 16.80015625 20.74171875 16.6328125 21.9609375 C16 25 16 25 14 27 C10.91796875 27.265625 10.91796875 27.265625 7.1875 27.25 C5.96417969 27.25515625 4.74085937 27.2603125 3.48046875 27.265625 C0.15406279 27.01175788 -2.09839044 26.6264143 -5 25 C-5.75 21.9375 -5.75 21.9375 -6 19 C-6.33 18.67 -6.66 18.34 -7 18 C-7.43832804 14.6186123 -7.48313958 11.37672556 -7 8 C-4.625 5.0625 -4.625 5.0625 -2 3 C-1.34 2.01 -0.68 1.02 0 0 Z " fill="#8A0D39" transform="translate(44,175)"/>
<path d="M0 0 C1.32 0 2.64 0 4 0 C4 0.99 4 1.98 4 3 C4.763125 3.0825 5.52625 3.165 6.3125 3.25 C9.59032326 4.16474137 10.06955396 5.31416203 12 8 C13.32860925 8.35169068 14.66158328 8.68770276 16 9 C16.33 9.99 16.66 10.98 17 12 C19.31 12 21.62 12 24 12 C24.66 13.32 25.32 14.64 26 16 C26.66 15.67 27.32 15.34 28 15 C27.48455373 11.18569761 26.79433828 9.57938918 24 7 C22.54676467 4.70835967 21.21315454 2.42630908 20 0 C30.27581963 4.295435 38.86307352 16.81969751 43.203125 26.75390625 C43.54859375 27.68074219 43.8940625 28.60757813 44.25 29.5625 C44.60578125 30.49191406 44.9615625 31.42132813 45.328125 32.37890625 C46.02426446 35.09465963 45.95227003 36.4056746 45 39 C44.67386719 38.14535156 44.34773438 37.29070312 44.01171875 36.41015625 C43.57472656 35.30542969 43.13773438 34.20070312 42.6875 33.0625 C42.25824219 31.96035156 41.82898438 30.85820312 41.38671875 29.72265625 C40.24391139 26.69139735 40.24391139 26.69139735 37 26 C35.24252386 30.50353262 34.80705592 34.17639811 35 39 C34.34 39 33.68 39 33 39 C33.02618408 39.56396484 33.05236816 40.12792969 33.0793457 40.70898438 C33.18435201 43.30569725 33.24864373 45.9019622 33.3125 48.5 C33.3753418 49.8303125 33.3753418 49.8303125 33.43945312 51.1875 C33.5611831 57.80961083 32.08374221 61.79196259 28 67 C27.505 66.01 27.505 66.01 27 65 C27.33 64.01 27.66 63.02 28 62 C28.66 62 29.32 62 30 62 C32.44189354 49.33391807 32.39060311 35.85088415 25.52734375 24.58203125 C20.97928898 18.33517588 14.4525304 10.4841768 7 8 C5.28859531 6.03814584 3.62126675 4.03697617 2 2 C1.34 1.34 0.68 0.68 0 0 Z " fill="#E8AA39" transform="translate(126,106)"/>
<path d="M0 0 C1.18916016 0.01353516 1.18916016 0.01353516 2.40234375 0.02734375 C4.35169281 0.05082988 6.30088575 0.08669863 8.25 0.125 C8.25 0.785 8.25 1.445 8.25 2.125 C8.91 2.125 9.57 2.125 10.25 2.125 C10.25 3.445 10.25 4.765 10.25 6.125 C10.91 6.125 11.57 6.125 12.25 6.125 C12.67317708 8.14322917 13.09635417 10.16145833 13.51953125 12.1796875 C14.17308838 14.49546549 14.17308838 14.49546549 17.25 16.125 C17.25 16.785 17.25 17.445 17.25 18.125 C18.08144531 18.125 18.91289063 18.125 19.76953125 18.125 C23.9296875 18.125 28.08984375 18.125 32.25 18.125 C29.81511169 20.46249278 28.38783135 21.10644578 25 21.5625 C18.57662543 20.8131063 12.83223468 17.70723468 8.25 13.125 C7.0625 10 7.0625 10 6.25 7.125 C5.59 6.465 4.93 5.805 4.25 5.125 C4.25 4.135 4.25 3.145 4.25 2.125 C2.30985937 2.35360572 0.37282586 2.60869181 -1.5625 2.875 C-2.64144531 3.01421875 -3.72039062 3.1534375 -4.83203125 3.296875 C-7.80685617 3.88999444 -7.80685617 3.88999444 -9.61328125 5.94921875 C-11.50652243 9.57305152 -11.13684102 12.06316925 -10.75 16.125 C-9.37493901 18.00390434 -9.37493901 18.00390434 -7.75 19.125 C-7.75 19.785 -7.75 20.445 -7.75 21.125 C-6.95335938 21.15078125 -6.15671875 21.1765625 -5.3359375 21.203125 C5.51427061 21.78391473 5.51427061 21.78391473 10.25 26.125 C10.25 26.785 10.25 27.445 10.25 28.125 C9.26 28.125 8.27 28.125 7.25 28.125 C6.59 27.135 5.93 26.145 5.25 25.125 C3.33116255 24.52915783 3.33116255 24.52915783 1.1171875 24.39453125 C0.31152344 24.31396484 -0.49414062 24.23339844 -1.32421875 24.15039062 C-2.16597656 24.08013672 -3.00773437 24.00988281 -3.875 23.9375 C-4.72449219 23.85564453 -5.57398437 23.77378906 -6.44921875 23.68945312 C-8.5483384 23.48897541 -10.64905824 23.30538389 -12.75 23.125 C-13.08 20.485 -13.41 17.845 -13.75 15.125 C-14.41 15.125 -15.07 15.125 -15.75 15.125 C-13.98952096 3.09505988 -13.98952096 3.09505988 -11.22265625 0.9296875 C-7.4931907 -0.28400903 -3.89290518 -0.08392665 0 0 Z " fill="#FDF4D8" transform="translate(97.75,66.875)"/>
<path d="M0 0 C0 0.99 0 1.98 0 3 C0.66 3 1.32 3 2 3 C3.125 6.75 3.125 6.75 2 9 C2.804375 9.268125 3.60875 9.53625 4.4375 9.8125 C5.283125 10.204375 6.12875 10.59625 7 11 C7.33 11.99 7.66 12.98 8 14 C11.00847418 15.22520264 11.00847418 15.22520264 14 16 C13.67 16.99 13.34 17.98 13 19 C8.85032045 19.2440988 5.91095159 18.32824771 2 17 C-0.57188262 16.51375344 -3.14518659 16.06919475 -5.73046875 15.66015625 C-8.39700212 14.8845209 -9.46768392 14.32384359 -11 12 C-11.07421875 9.30078125 -11.07421875 9.30078125 -10.6875 6.3125 C-10.56761719 5.31863281 -10.44773437 4.32476562 -10.32421875 3.30078125 C-10.21722656 2.54152344 -10.11023438 1.78226562 -10 1 C-6.52674819 -0.1577506 -3.63932552 -0.06866652 0 0 Z " fill="#EEA62B" transform="translate(100,72)"/>
<path d="M0 0 C0 0.33 0 0.66 0 1 C-0.59167969 1.08636719 -1.18335938 1.17273438 -1.79296875 1.26171875 C-7.37150623 2.25366098 -10.31336029 3.44591565 -14 8 C-14.53367188 8.57492188 -15.06734375 9.14984375 -15.6171875 9.7421875 C-17.5038025 12.82259278 -17.26566486 15.16274774 -17.25 18.75 C-17.57162283 24.95088808 -18.57296212 28.03723094 -23.0234375 32.33203125 C-23.67570312 32.88246094 -24.32796875 33.43289062 -25 34 C-25.63164062 34.54011719 -26.26328125 35.08023438 -26.9140625 35.63671875 C-28.1023382 36.64043248 -29.29978135 37.63343376 -30.5078125 38.61328125 C-32.23612827 40.07912438 -32.23612827 40.07912438 -33.625 42.875 C-34.07875 43.57625 -34.5325 44.2775 -35 45 C-37.6875 45.3125 -37.6875 45.3125 -40 45 C-41.20628008 47.33214148 -42.1654738 49.49642139 -43 52 C-43.66 52 -44.32 52 -45 52 C-45 52.66 -45 53.32 -45 54 C-46.32 54.66 -47.64 55.32 -49 56 C-48.34 53.69 -47.68 51.38 -47 49 C-46.01 49 -45.02 49 -44 49 C-44 48.01 -44 47.02 -44 46 C-43.01 46 -42.02 46 -41 46 C-40.67 44.68 -40.34 43.36 -40 42 C-39.236875 41.979375 -38.47375 41.95875 -37.6875 41.9375 C-36.800625 41.628125 -35.91375 41.31875 -35 41 C-34.54625 39.88625 -34.0925 38.7725 -33.625 37.625 C-32 34 -32 34 -28.4375 32.1875 C-26.7359375 31.5996875 -26.7359375 31.5996875 -25 31 C-22.6009678 28.6009678 -22.66716218 27.75286527 -22.359375 24.45703125 C-22.25753906 23.54759766 -22.15570313 22.63816406 -22.05078125 21.70117188 C-21.85243493 19.79627443 -21.6672321 17.8899562 -21.49609375 15.98242188 C-20.81454857 10.14823094 -19.60395973 6.58090965 -15.58666992 2.24267578 C-11.32977056 -1.09131679 -5.12144649 -0.10451932 0 0 Z " fill="#FAEDCE" transform="translate(179,28)"/>
<path d="M0 0 C0 0.66 0 1.32 0 2 C-0.66 2 -1.32 2 -2 2 C-2 2.66 -2 3.32 -2 4 C-9.31608526 6.43869509 -18.46947483 5.43438575 -26 4 C-26.268125 4.763125 -26.53625 5.52625 -26.8125 6.3125 C-27.95134505 8.88988618 -28.81416671 10.26954864 -31 12 C-31.66 12 -32.32 12 -33 12 C-32.88512252 13.58409994 -32.75765492 15.16728963 -32.625 16.75 C-32.55539063 17.63171875 -32.48578125 18.5134375 -32.4140625 19.421875 C-31.99856731 22.00892053 -31.1906008 23.69623586 -30 26 C-30 26.99 -30 27.98 -30 29 C-24.72 29.66 -19.44 30.32 -14 31 C-16 33 -16 33 -19.6875 33.1875 C-21.1253217 33.13289918 -22.56286632 33.07042216 -24 33 C-25.19625 33 -26.3925 33 -27.625 33 C-31.8946694 31.73491277 -33.4558975 30.02702993 -35.8984375 26.3828125 C-38.1072113 21.60496847 -37.74543808 16.96481056 -36.484375 11.94921875 C-34.92636561 7.7190421 -32.91367211 5.1650101 -29 3 C-24.45185063 2.07581605 -20.44082383 1.51972539 -16 3 C-13.93854893 3.068991 -11.87498599 3.08467727 -9.8125 3.0625 C-8.72582031 3.05347656 -7.63914062 3.04445312 -6.51953125 3.03515625 C-5.68808594 3.02355469 -4.85664062 3.01195312 -4 3 C-4 2.34 -4 1.68 -4 1 C-2 0 -2 0 0 0 Z " fill="#812949" transform="translate(70,171)"/>
<path d="M0 0 C2.34669308 2.57379241 2.9109508 4.64380318 3.75 8 C5.80556808 12.93336339 9.8584017 14.92920085 14.5 17.25 C17.6387145 18.19161435 20.75007137 18.61765546 24 19 C20.54337669 21.30441554 19.05142119 21.25860135 15 21 C14.34 20.67 13.68 20.34 13 20 C13 19.34 13 18.68 13 18 C11.96875 17.7525 10.9375 17.505 9.875 17.25 C6.02555554 16.12103869 3.05191866 14.67973345 0 12 C-0.375 8.75 -0.375 8.75 0 6 C-0.66 6 -1.32 6 -2 6 C-2 5.01 -2 4.02 -2 3 C-5.3 3.33 -8.6 3.66 -12 4 C-12.10815225 5.76949095 -12.18566083 7.54087487 -12.25 9.3125 C-12.29640625 10.29863281 -12.3428125 11.28476563 -12.390625 12.30078125 C-12.25559045 15.08857158 -12.25559045 15.08857158 -10.25 16.8125 C-6.81505711 18.62538653 -3.85253669 18.67895528 0 19 C0 19.33 0 19.66 0 20 C-1.43739513 20.02712066 -2.87493863 20.04645067 -4.3125 20.0625 C-5.51326172 20.07990234 -5.51326172 20.07990234 -6.73828125 20.09765625 C-10.11546032 19.95183677 -11.72329134 19.26089673 -14.1875 16.9375 C-16.51689929 13.16226666 -16.88410635 10.33299649 -16 6 C-12.17525668 -0.19872193 -6.91238652 -1.13699068 0 0 Z " fill="#DFB44F" transform="translate(102,69)"/>
<path d="M0 0 C1.63001953 0.02707031 1.63001953 0.02707031 3.29296875 0.0546875 C4.54013672 0.08949219 4.54013672 0.08949219 5.8125 0.125 C5.8125 0.455 5.8125 0.785 5.8125 1.125 C2.1825 1.455 -1.4475 1.785 -5.1875 2.125 C-5.5175 3.445 -5.8475 4.765 -6.1875 6.125 C-8.3671875 8.59765625 -8.3671875 8.59765625 -11.0625 11.1875 C-11.94679687 12.04472656 -12.83109375 12.90195313 -13.7421875 13.78515625 C-14.54914063 14.55730469 -15.35609375 15.32945313 -16.1875 16.125 C-16.74695313 16.72183594 -17.30640625 17.31867188 -17.8828125 17.93359375 C-19.1875 19.125 -19.1875 19.125 -21.1875 19.125 C-21.8475 20.445 -22.5075 21.765 -23.1875 23.125 C-23.8475 23.125 -24.5075 23.125 -25.1875 23.125 C-25.435 23.74375 -25.6825 24.3625 -25.9375 25 C-27.42031451 27.52078467 -28.59613958 27.9102998 -31.1875 29.125 C-33.51122412 31.91172831 -33.51122412 31.91172831 -32.875 34.875 C-32.648125 35.9475 -32.42125 37.02 -32.1875 38.125 C-31.84890041 40.45757494 -31.5142961 42.79074212 -31.1875 45.125 C-34.34333533 43.54708234 -34.89852897 41.34742758 -36.1875 38.125 C-36.97460921 33.76012165 -37.1626464 31.63396639 -34.74609375 27.89453125 C-30.50765691 22.91971953 -25.61327567 18.89107003 -20.453125 14.91015625 C-17.79101376 12.81259619 -15.50976927 10.58801287 -13.1875 8.125 C-12.32125 7.320625 -12.32125 7.320625 -11.4375 6.5 C-9.93090914 5.02883382 -9.93090914 5.02883382 -9.1875 2.125 C-5.66070901 -0.22619399 -4.15870515 -0.08943452 0 0 Z " fill="#FCF1D1" transform="translate(177.1875,60.875)"/>
<path d="M0 0 C0.33 1.98 0.66 3.96 1 6 C2.65 5.34 4.3 4.68 6 4 C6 4.66 6 5.32 6 6 C5.34 6 4.68 6 4 6 C4 7.32 4 8.64 4 10 C3.01 10.495 3.01 10.495 2 11 C1.896875 11.78375 1.79375 12.5675 1.6875 13.375 C1 16 1 16 -1.5 17.6875 C-2.325 18.120625 -3.15 18.55375 -4 19 C-4.33 19.66 -4.66 20.32 -5 21 C-8.0625 21.625 -8.0625 21.625 -11 22 C-11.33 21.34 -11.66 20.68 -12 20 C-14.01669827 18.86649466 -14.01669827 18.86649466 -16 18 C-15.01 16.515 -15.01 16.515 -14 15 C-12.0546875 14.70703125 -12.0546875 14.70703125 -9.875 14.8125 C-8.59625 14.874375 -7.3175 14.93625 -6 15 C-6.66 13.02 -7.32 11.04 -8 9 C-7.34 8.34 -6.68 7.68 -6 7 C-5.690625 6.175 -5.38125 5.35 -5.0625 4.5 C-4.0487596 2.11472848 -3.05045534 0 0 0 Z " fill="#EFA726" transform="translate(162,167)"/>
<path d="M0 0 C0.66 0.33 1.32 0.66 2 1 C0.02 1.99 0.02 1.99 -2 3 C-1.91253716 4.43861294 -1.80434652 5.87597508 -1.6875 7.3125 C-1.62949219 8.11300781 -1.57148437 8.91351563 -1.51171875 9.73828125 C-0.8657303 12.59345159 -0.4126736 13.3208935 2 15 C4.79989129 15.26159322 7.37227929 15.34904338 10.16796875 15.29296875 C10.96278152 15.28872391 11.7575943 15.28447906 12.57649231 15.28010559 C15.11384021 15.2633193 17.65039238 15.22566824 20.1875 15.1875 C21.90819165 15.17245305 23.62889576 15.15876466 25.34960938 15.14648438 C29.56671262 15.11341607 33.78322142 15.06163495 38 15 C38 14.34 38 13.68 38 13 C38.81984375 12.67386719 39.6396875 12.34773437 40.484375 12.01171875 C41.56203125 11.57472656 42.6396875 11.13773438 43.75 10.6875 C45.35101563 10.04361328 45.35101563 10.04361328 46.984375 9.38671875 C49.6652915 8.15391388 51.7383192 6.87192513 54 5 C54.66 5.33 55.32 5.66 56 6 C54.54600704 9.83325416 52.6919885 11.28279605 49 13 C46.1875 13.1875 46.1875 13.1875 44 13 C44 13.66 44 14.32 44 15 C36.78192632 18.57104698 29.61626901 18.52523703 21.73681641 18.50097656 C19.50423022 18.50000185 17.27506258 18.54175706 15.04296875 18.5859375 C8.07043337 18.64437718 2.10168673 18.62174944 -3.76904297 14.36914062 C-5 13 -5 13 -5.625 10 C-4.11290323 2.74193548 -4.11290323 2.74193548 0 0 Z " fill="#FEF1CF" transform="translate(100,187)"/>
<path d="M0 0 C0 3 0 3 -1.8125 5.125 C-10.21410243 12.32637351 -31.55527793 7.52877548 -42 7 C-42.33 8.98 -42.66 10.96 -43 13 C-43.66 13 -44.32 13 -45 13 C-44.34 15.64 -43.68 18.28 -43 21 C-45 20.0625 -45 20.0625 -47 18 C-47.60688598 14.91888659 -47.72124359 12.05998199 -47 9 C-45.44238281 6.88354492 -45.44238281 6.88354492 -43 5 C-40.31827524 4.65040594 -38.06062042 4.53076226 -35.390625 4.609375 C-34.66381531 4.61503479 -33.93700562 4.62069458 -33.18817139 4.62652588 C-30.87476755 4.64885447 -28.5629328 4.69903952 -26.25 4.75 C-24.67840784 4.77006977 -23.10679132 4.78831971 -21.53515625 4.8046875 C-17.68950283 4.84870707 -13.84501711 4.91770625 -10 5 C-10 4.34 -10 3.68 -10 3 C-6.7 2.01 -3.4 1.02 0 0 Z " fill="#E6AD3E" transform="translate(145,181)"/>
<path d="M0 0 C1.43874321 0.10174735 2.87754543 0.20266384 4.31640625 0.30273438 C7.79500146 0.54644474 11.27267015 0.80128462 14.75 1.0625 C14.75 1.3925 14.75 1.7225 14.75 2.0625 C13.72229492 2.08755615 12.69458984 2.1126123 11.63574219 2.13842773 C7.76650771 2.23369882 3.89740377 2.33361031 0.02832031 2.43481445 C-1.63571079 2.47771676 -3.29977342 2.51941582 -4.96386719 2.55981445 C-29.86859468 2.68289476 -29.86859468 2.68289476 -51.21875 14.35546875 C-53.25 16.0625 -53.25 16.0625 -55.25 17.0625 C-54.15078577 14.26450015 -53.20533848 13.02699982 -50.8125 11.125 C-48.11831156 9.27153959 -48.11831156 9.27153959 -47.09765625 6.54296875 C-44.83367629 3.50358763 -43.00853148 3.19894397 -39.34765625 2.60546875 C-38.61417969 2.50878906 -37.88070312 2.41210938 -37.125 2.3125 C-32.29514088 1.99444528 -32.29514088 1.99444528 -28.25 0.0625 C-18.83626738 -1.46621668 -9.44221275 -0.71239201 0 0 Z " fill="#E1BFD1" transform="translate(118.25,29.9375)"/>
<path d="M0 0 C0.66 0.33 1.32 0.66 2 1 C1.175 1.825 0.35 2.65 -0.5 3.5 C-2.96026998 6.49450003 -3.74767081 8.93457081 -3.49609375 12.9140625 C-2.57008473 16.80767525 -0.35887542 19.82675092 2 23 C2.598125 23.825 3.19625 24.65 3.8125 25.5 C4.204375 25.995 4.59625 26.49 5 27 C1.66666667 27 -1.66666667 27 -5 27 C-4.42415568 24.61435923 -3.77772405 22.33317216 -3 20 C-6.62885324 19.84850702 -6.62885324 19.84850702 -10 21 C-10.19573608 19.56359829 -10.38127816 18.12580496 -10.5625 16.6875 C-10.66691406 15.88699219 -10.77132812 15.08648437 -10.87890625 14.26171875 C-11 12 -11 12 -10 9 C-9.01 9 -8.02 9 -7 9 C-6.67 8.01 -6.34 7.02 -6 6 C-5.34 6 -4.68 6 -4 6 C-3.67 4.35 -3.34 2.7 -3 1 C-2.01 0.67 -1.02 0.34 0 0 Z " fill="#E5AB33" transform="translate(145,84)"/>
<path d="M0 0 C0.99 0.33 1.98 0.66 3 1 C1.84826645 3.46800047 0.95216435 5.04783565 -1 7 C-0.34 7.33 0.32 7.66 1 8 C1 8.99 1 9.98 1 11 C-0.32 11 -1.64 11 -3 11 C-3 11.66 -3 12.32 -3 13 C-3.66 13 -4.32 13 -5 13 C-5 13.99 -5 14.98 -5 16 C-6.99954746 16.04254356 -9.00041636 16.04080783 -11 16 C-11.33 15.67 -11.66 15.34 -12 15 C-12.33 16.32 -12.66 17.64 -13 19 C-13.99 19 -14.98 19 -16 19 C-15.67 16.36 -15.34 13.72 -15 11 C-13.1128125 10.38125 -13.1128125 10.38125 -11.1875 9.75 C-7.62299036 8.43841107 -6.10410247 7.21152483 -4 4 C-3.01 4 -2.02 4 -1 4 C-1.33 3.01 -1.66 2.02 -2 1 C-1.34 0.67 -0.68 0.34 0 0 Z " fill="#880D37" transform="translate(100,152)"/>
<path d="M0 0 C1.48717691 3.86665996 0.34016247 6.20287302 -1 10 C-1.37531446 12.32694964 -1.71917202 14.65976685 -2 17 C-6.75 18.125 -6.75 18.125 -9 17 C-9.66 18.98 -10.32 20.96 -11 23 C-12.32 22.34 -13.64 21.68 -15 21 C-14.67 18.69 -14.34 16.38 -14 14 C-13.01 14 -12.02 14 -11 14 C-6.82982702 10.47139209 -4.57701874 6.7097239 -2 2 C-1.34 1.34 -0.68 0.68 0 0 Z " fill="#EBA828" transform="translate(155,60)"/>
<path d="M0 0 C0.66 0.33 1.32 0.66 2 1 C-0.53817601 4.7565005 -2.67916516 6.58413544 -6.9296875 8.17578125 C-10.33316587 9.53075094 -13.52665441 11.30673268 -16.765625 13.01171875 C-19 14 -19 14 -22 14 C-22 14.66 -22 15.32 -22 16 C-25.79537631 17.2187375 -29.42791621 17.11338128 -33.390625 17.09765625 C-34.09523865 17.0962413 -34.79985229 17.09482635 -35.52581787 17.09336853 C-37.76725584 17.08778933 -40.00859243 17.07524073 -42.25 17.0625 C-43.77343605 17.05748231 -45.29687368 17.05291987 -46.8203125 17.04882812 C-50.54690772 17.03782674 -54.27344396 17.02057646 -58 17 C-58 16.67 -58 16.34 -58 16 C-42.655 15.505 -42.655 15.505 -27 15 C-27 14.34 -27 13.68 -27 13 C-26.11957031 12.66226563 -25.23914063 12.32453125 -24.33203125 11.9765625 C-23.17058594 11.53054687 -22.00914062 11.08453125 -20.8125 10.625 C-19.08966797 9.96371094 -19.08966797 9.96371094 -17.33203125 9.2890625 C-14.54656723 8.21145039 -11.77133576 7.11323148 -9 6 C-7.783125 5.525625 -6.56625 5.05125 -5.3125 4.5625 C-1.79510447 3.25153441 -1.79510447 3.25153441 0 0 Z " fill="#E4B652" transform="translate(160,186)"/>
<path d="M0 0 C0.99 0.33 1.98 0.66 3 1 C2.87353489 10.70332284 2.42447776 18.79950417 -1.94140625 27.6796875 C-3.20753595 30.0298299 -3.20753595 30.0298299 -3 33 C-3 34.32 -3 35.64 -3 37 C-7.05431692 38.15837626 -9.21812119 37.83691257 -13 36 C-12.01 35.505 -12.01 35.505 -11 35 C-10.32433975 33.6712015 -9.65890359 32.3371867 -9 31 C-7.542703 29.19421893 -5.99808778 27.49789656 -4.4375 25.78125 C-1.70317126 22.39306004 -0.75270401 19.57030432 -0.5859375 15.234375 C-0.52792969 13.90019531 -0.52792969 13.90019531 -0.46875 12.5390625 C-0.4378125 11.61867187 -0.406875 10.69828125 -0.375 9.75 C-0.33632812 8.81414062 -0.29765625 7.87828125 -0.2578125 6.9140625 C-0.16375156 4.60956946 -0.07810601 2.30507987 0 0 Z " fill="#E7A63A" transform="translate(159,145)"/>
<path d="M0 0 C0.66 0 1.32 0 2 0 C3.625 2 3.625 2 5 4 C6.94074861 3.72382467 6.94074861 3.72382467 9 3 C9.66 2.01 10.32 1.02 11 0 C11.66 0 12.32 0 13 0 C11.58226538 3.54433654 10.32387762 4.33806119 7 6 C6.57847656 6.89332031 6.57847656 6.89332031 6.1484375 7.8046875 C4.71766097 10.5397093 2.9445744 12.09826223 0.625 14.125 C-0.14585937 14.80820313 -0.91671875 15.49140625 -1.7109375 16.1953125 C-3.75712617 17.80851927 -5.62785421 18.94932355 -8 20 C-7.67 18.02 -7.34 16.04 -7 14 C-5.35 13.67 -3.7 13.34 -2 13 C-2.04125 11.783125 -2.0825 10.56625 -2.125 9.3125 C-2.13754508 5.78105873 -1.59998217 3.19996434 0 0 Z " fill="#EBA637" transform="translate(155,64)"/>
<path d="M0 0 C4.23063653 1.11987438 7.09361469 3.19001233 9.81640625 6.53515625 C12.42966176 11.97728241 12.01578715 18.17748152 11 24 C9.23976732 26.92275396 8.15990631 27.45102632 5 29 C4.01 29 3.02 29 2 29 C2 29.66 2 30.32 2 31 C1.15695313 31.06058594 0.31390625 31.12117188 -0.5546875 31.18359375 C-1.65039062 31.26738281 -2.74609375 31.35117187 -3.875 31.4375 C-5.51082031 31.55931641 -5.51082031 31.55931641 -7.1796875 31.68359375 C-9.94728971 31.83001703 -9.94728971 31.83001703 -12 33 C-11.34 31.35 -10.68 29.7 -10 28 C-9.26394531 27.93941406 -8.52789062 27.87882812 -7.76953125 27.81640625 C-6.30580078 27.69072266 -6.30580078 27.69072266 -4.8125 27.5625 C-3.84957031 27.48128906 -2.88664063 27.40007813 -1.89453125 27.31640625 C0.78649602 27.02333849 3.3662986 26.57296246 6 26 C6 25.34 6 24.68 6 24 C6.66 24 7.32 24 8 24 C9.21597474 14.27622745 9.21597474 14.27622745 6.21875 5.4140625 C4.2205518 3.74655203 2.21869304 2.35201607 0 1 C0 0.67 0 0.34 0 0 Z " fill="#E3B763" transform="translate(181,30)"/>
<path d="M0 0 C3.00562758 1.65669668 6.0037099 3.3264868 9 5 C10.010625 5.556875 11.02125 6.11375 12.0625 6.6875 C12.701875 7.120625 13.34125 7.55375 14 8 C14 8.66 14 9.32 14 10 C15.32 10.33 16.64 10.66 18 11 C17.01 11.33 16.02 11.66 15 12 C14.34 11.67 13.68 11.34 13 11 C13 10.34 13 9.68 13 9 C10.525 8.505 10.525 8.505 8 8 C8 7.34 8 6.68 8 6 C5.66834966 5.66501699 5.66834966 5.66501699 3 6 C1.64631404 7.31266518 0.31200404 8.64567325 -1 10 C-2.32 10 -3.64 10 -5 10 C-5 10.99 -5 11.98 -5 13 C-3.68 13.33 -2.36 13.66 -1 14 C-1 14.99 -1 15.98 -1 17 C0.32 17.33 1.64 17.66 3 18 C2.67 18.66 2.34 19.32 2 20 C2.5775 20.103125 3.155 20.20625 3.75 20.3125 C6.32049158 21.09792798 7.93657284 22.30504197 10 24 C9.67 24.66 9.34 25.32 9 26 C7.55962331 25.06692579 6.12281015 24.12834923 4.6875 23.1875 C3.88699219 22.66542969 3.08648437 22.14335937 2.26171875 21.60546875 C0.26542713 20.18841201 -1.27930901 18.72069099 -3 17 C-4.20361088 16.22937976 -5.43374072 15.49851923 -6.6875 14.8125 C-7.780625 14.214375 -8.87375 13.61625 -10 13 C-10 12.34 -10 11.68 -10 11 C-9.113125 10.566875 -8.22625 10.13375 -7.3125 9.6875 C-4.45570545 8.23215183 -1.72603137 6.68372526 1 5 C0.67 3.35 0.34 1.7 0 0 Z " fill="#933656" transform="translate(91,113)"/>
<path d="M0 0 C1.32970825 -0.01933594 1.32970825 -0.01933594 2.6862793 -0.0390625 C8.20827117 -0.04732509 12.9825522 0.47377554 18.25 2.1875 C19.7283226 5.14414519 19.31032783 7.92979737 19.25 11.1875 C18.59 11.1875 17.93 11.1875 17.25 11.1875 C17.25 11.8475 17.25 12.5075 17.25 13.1875 C16.59 13.1875 15.93 13.1875 15.25 13.1875 C15.58 11.8675 15.91 10.5475 16.25 9.1875 C15.59 8.8575 14.93 8.5275 14.25 8.1875 C14.91 8.1875 15.57 8.1875 16.25 8.1875 C15.90213292 6.21213255 15.90213292 6.21213255 15.25 4.1875 C12.13045872 2.62772936 8.82040616 3.06645874 5.3984375 3.08984375 C4.23738998 3.09196617 4.23738998 3.09196617 3.05288696 3.09413147 C0.57688558 3.09973597 -1.89902588 3.11228917 -4.375 3.125 C-6.05208203 3.13001442 -7.72916547 3.13457743 -9.40625 3.13867188 C-13.52086806 3.14970685 -17.63541878 3.16697446 -21.75 3.1875 C-22.08 2.5275 -22.41 1.8675 -22.75 1.1875 C-15.16877297 0.30851716 -7.62597657 0.05346404 0 0 Z " fill="#7B1639" transform="translate(119.75,32.8125)"/>
<path d="M0 0 C0.66 0.33 1.32 0.66 2 1 C3.07089185 13.62972452 0.50571557 22.65148424 -5 34 C-5.66 34 -6.32 34 -7 34 C-7.33 35.32 -7.66 36.64 -8 38 C-8.33 38 -8.66 38 -9 38 C-9 36.35 -9 34.7 -9 33 C-7.515 32.505 -7.515 32.505 -6 32 C-6 30.68 -6 29.36 -6 28 C-5.34 28 -4.68 28 -4 28 C-3.95101562 27.19175781 -3.90203125 26.38351563 -3.8515625 25.55078125 C-3.77679688 24.48214844 -3.70203125 23.41351563 -3.625 22.3125 C-3.55539063 21.25675781 -3.48578125 20.20101562 -3.4140625 19.11328125 C-3.00852234 16.06407835 -2.14656569 13.83058405 -1 11 C-0.7240522 9.07096868 -0.51550097 7.1310968 -0.375 5.1875 C-0.30023438 4.21167969 -0.22546875 3.23585937 -0.1484375 2.23046875 C-0.09945312 1.49441406 -0.05046875 0.75835937 0 0 Z " fill="#ECB95F" transform="translate(172,145)"/>
<path d="M0 0 C0.76978683 0.00424484 1.53957367 0.00848969 2.33268738 0.01286316 C4.77814521 0.02958278 7.22276232 0.06722105 9.66796875 0.10546875 C11.33136826 0.12052434 12.99478076 0.13421121 14.65820312 0.14648438 C18.72427957 0.1794641 22.78973188 0.23119869 26.85546875 0.29296875 C26.85546875 0.95296875 26.85546875 1.61296875 26.85546875 2.29296875 C25.39524292 2.32269775 25.39524292 2.32269775 23.90551758 2.35302734 C20.28042524 2.42932242 16.65572181 2.51800211 13.03100586 2.61035156 C11.46467794 2.64854284 9.89826526 2.68341269 8.33178711 2.71484375 C6.07505075 2.76070946 3.81889292 2.81866644 1.5625 2.87890625 C0.86647171 2.89045746 0.17044342 2.90200867 -0.54667664 2.91390991 C-4.46304463 3.03175964 -7.68275117 3.38868336 -11.14453125 5.29296875 C-12.03839289 7.84072181 -12.03839289 7.84072181 -12.14453125 10.29296875 C-12.47453125 10.29296875 -12.80453125 10.29296875 -13.14453125 10.29296875 C-13.45703125 6.98046875 -13.45703125 6.98046875 -13.14453125 3.29296875 C-9.10912548 -0.14361907 -5.06033082 -0.1059151 0 0 Z " fill="#FCF5D9" transform="translate(108.14453125,183.70703125)"/>
<path d="M0 0 C2.83313078 0.31479231 4.66906369 0.76213953 7 2.4375 C11.31866633 7.97079123 13.84566968 14.37129133 16 21 C16.66 21.66 17.32 22.32 18 23 C18.37890625 24.91015625 18.37890625 24.91015625 18.5625 27.0625 C18.55913448 30.76736617 18.55913448 30.76736617 20 32 C20.07325168 34.86267567 20.09238205 37.700719 20.0625 40.5625 C20.05798828 41.36880859 20.05347656 42.17511719 20.04882812 43.00585938 C20.03700518 45.00393756 20.01906914 47.00197783 20 49 C19.67 49 19.34 49 19 49 C18.96261719 47.9378125 18.92523438 46.875625 18.88671875 45.78125 C18.56357698 38.29586999 18.24995944 31.86102549 15 25 C14.72285156 24.31164062 14.44570312 23.62328125 14.16015625 22.9140625 C10.72539357 14.51142419 5.74133122 7.00039508 0 0 Z " fill="#FCF2D4" transform="translate(155,113)"/>
<path d="M0 0 C0.33 0 0.66 0 1 0 C1 7.92 1 15.84 1 24 C1.66 24 2.32 24 3 24 C3 24.99 3 25.98 3 27 C3.66 27 4.32 27 5 27 C5 27.99 5 28.98 5 30 C5.66 30 6.32 30 7 30 C7.13277344 30.60328125 7.26554687 31.2065625 7.40234375 31.828125 C7.66724609 33.02695313 7.66724609 33.02695313 7.9375 34.25 C8.11152344 35.03890625 8.28554688 35.8278125 8.46484375 36.640625 C8.947556 38.76878703 9.46163178 40.88532842 10 43 C5.81944506 39.40007769 3.86015267 35.99808285 1.796875 30.890625 C1.150249 29.02459742 1.150249 29.02459742 0 28 C-1.87254311 18.84534479 -1.44124421 9.18793182 0 0 Z " fill="#924560" transform="translate(52,65)"/>
<path d="M0 0 C-2.14740212 3.22110318 -2.37920594 3.34750148 -5.8125 4.3125 C-10.39582648 5.85968462 -12.12767881 8.19839843 -15 12 C-15.66 12 -16.32 12 -17 12 C-17 12.66 -17 13.32 -17 14 C-17.66 14 -18.32 14 -19 14 C-19.144375 15.134375 -19.28875 16.26875 -19.4375 17.4375 C-20 21 -20 21 -21 22 C-21.23527773 24.34987262 -21.41386417 26.70556039 -21.5625 29.0625 C-21.64628906 30.35285156 -21.73007813 31.64320312 -21.81640625 32.97265625 C-21.87699219 33.97167969 -21.93757813 34.97070312 -22 36 C-22.33 36 -22.66 36 -23 36 C-23.08164159 33.3118751 -23.14079668 30.626277 -23.1875 27.9375 C-23.22520508 26.80924805 -23.22520508 26.80924805 -23.26367188 25.65820312 C-23.33282151 20.33368144 -22.40669334 16.75653566 -20 12 C-19.34 12 -18.68 12 -18 12 C-17.7525 11.2575 -17.505 10.515 -17.25 9.75 C-13.9914849 2.58126678 -7.71314094 -0.55093864 0 0 Z " fill="#D9AEC1" transform="translate(90,51)"/>
<path d="M0 0 C0.5775 0.37125 1.155 0.7425 1.75 1.125 C-0.25 4.125 -0.25 4.125 -3.375 4.8125 C-4.32375 4.915625 -5.2725 5.01875 -6.25 5.125 C-6.25 5.785 -6.25 6.445 -6.25 7.125 C-7.24 7.455 -8.23 7.785 -9.25 8.125 C-11.73092494 12.29295391 -13.04052539 16.47317457 -14.25 21.125 C-14.91 21.125 -15.57 21.125 -16.25 21.125 C-17.15389917 12.80577983 -17.15389917 12.80577983 -15.0546875 8.90234375 C-13.528922 7.03538948 -12.23429452 5.49944254 -10.25 4.125 C-8.93 4.125 -7.61 4.125 -6.25 4.125 C-6.25 3.135 -6.25 2.145 -6.25 1.125 C-2.80384615 -1.09038462 -2.80384615 -1.09038462 0 0 Z " fill="#852747" transform="translate(76.25,178.875)"/>
<path d="M0 0 C-3.09055955 2.06037303 -3.70926162 2.24799242 -7.19604492 2.22705078 C-8.03668991 2.22689972 -8.8773349 2.22674866 -9.74345398 2.22659302 C-10.64666885 2.21627045 -11.54988373 2.20594788 -12.48046875 2.1953125 C-13.87245232 2.19106766 -13.87245232 2.19106766 -15.29255676 2.18673706 C-18.25766879 2.17553836 -21.22247921 2.15043435 -24.1875 2.125 C-26.19726126 2.1149698 -28.20702726 2.10584402 -30.21679688 2.09765625 C-35.14464753 2.07560004 -40.07227262 2.04107229 -45 2 C-45 1.67 -45 1.34 -45 1 C-40.8755115 0.66013419 -36.75034322 0.32931542 -32.625 0 C-30.89056641 -0.14308594 -30.89056641 -0.14308594 -29.12109375 -0.2890625 C-19.24243127 -1.07042563 -9.83124566 -1.26854783 0 0 Z " fill="#9D4F6C" transform="translate(135,48)"/>
<path d="M0 0 C0 3 0 3 -2.51953125 5.5234375 C-3.61005168 6.48213677 -4.70807444 7.43235304 -5.8125 8.375 C-9.69115918 11.7008703 -12.3764591 14.56077683 -15 19 C-17.6875 19.3125 -17.6875 19.3125 -20 19 C-21.20628008 21.33214148 -22.1654738 23.49642139 -23 26 C-23.66 26 -24.32 26 -25 26 C-25 26.66 -25 27.32 -25 28 C-26.98 28.99 -26.98 28.99 -29 30 C-28.01 26.535 -28.01 26.535 -27 23 C-26.01 23 -25.02 23 -24 23 C-24 22.01 -24 21.02 -24 20 C-23.01 20 -22.02 20 -21 20 C-20.67 18.68 -20.34 17.36 -20 16 C-19.236875 15.979375 -18.47375 15.95875 -17.6875 15.9375 C-16.800625 15.628125 -15.91375 15.31875 -15 15 C-14.54625 13.88625 -14.0925 12.7725 -13.625 11.625 C-12 8 -12 8 -8.625 6.375 C-6.830625 5.694375 -6.830625 5.694375 -5 5 C-2.12314797 2.45911321 -2.12314797 2.45911321 0 0 Z " fill="#F2D69C" transform="translate(159,54)"/>
<path d="M0 0 C4.75548243 -0.74304413 7.56068738 1.26756947 11.42578125 3.7109375 C11.94527344 4.13632813 12.46476562 4.56171875 13 5 C13 5.66 13 6.32 13 7 C14.32 7.33 15.64 7.66 17 8 C17 8.66 17 9.32 17 10 C19.97 10.495 19.97 10.495 23 11 C23.33 12.98 23.66 14.96 24 17 C20.04525862 15.1624434 16.42214367 12.83614018 12.75 10.5 C12.1003125 10.09652344 11.450625 9.69304687 10.78125 9.27734375 C9.15124981 8.23975959 7.57060934 7.12546338 6 6 C6 5.34 6 4.68 6 4 C5.38125 3.71125 4.7625 3.4225 4.125 3.125 C2 2 2 2 0 0 Z " fill="#E2B453" transform="translate(102,89)"/>
<path d="M0 0 C4.32001266 0.48000141 6.27322191 1.61503409 9 5 C11.97736139 11.25139937 11.90731675 18.35167562 10.125 25 C9 28 9 28 7 31 C3.375 31.1875 3.375 31.1875 0 31 C0 30.34 0 29.68 0 29 C2.88229224 27.07847184 5.90127153 25.53612181 9 24 C9.35019951 14.01052291 9.35019951 14.01052291 5.625 5.25 C4.75875 4.5075 3.8925 3.765 3 3 C2.401875 2.38125 1.80375 1.7625 1.1875 1.125 C0.795625 0.75375 0.40375 0.3825 0 0 Z " fill="#FCF0C5" transform="translate(183,30)"/>
<path d="M0 0 C1.20220203 3.53094302 0.79532349 6.12898982 0.0625 9.75 C-0.13214844 10.73484375 -0.32679688 11.7196875 -0.52734375 12.734375 C-0.68332031 13.48203125 -0.83929688 14.2296875 -1 15 C-1.99 15.33 -2.98 15.66 -4 16 C-4.020625 17.03125 -4.04125 18.0625 -4.0625 19.125 C-5.30101568 24.24419815 -7.83740574 26.0329289 -12 29 C-11.53680089 24.27536912 -10.90108294 20.82942948 -8 17 C-7.34 17 -6.68 17 -6 17 C-5.81824219 16.443125 -5.63648438 15.88625 -5.44921875 15.3125 C-3.75137815 10.15803009 -1.93577765 5.06989385 0 0 Z " fill="#F9EAC1" transform="translate(173,162)"/>
<path d="M0 0 C2.475 0.99 2.475 0.99 5 2 C5 2.66 5 3.32 5 4 C5.66 4.33 6.32 4.66 7 5 C5.61482883 8.4340702 4.34555636 9.70022022 1 11.25 C0.29875 11.58515625 -0.4025 11.9203125 -1.125 12.265625 C-3 13 -3 13 -5 13 C-4.67 11.68 -4.34 10.36 -4 9 C-4.66 9 -5.32 9 -6 9 C-6 8.01 -6 7.02 -6 6 C-5.38125 5.938125 -4.7625 5.87625 -4.125 5.8125 C-1.72238859 5.171081 -1.72238859 5.171081 -0.75 2.4375 C-0.5025 1.633125 -0.255 0.82875 0 0 Z " fill="#830E35" transform="translate(86,111)"/>
<path d="M0 0 C0.33 0 0.66 0 1 0 C1.1083667 2.7302389 1.18746694 5.45614543 1.25 8.1875 C1.30027344 9.34088867 1.30027344 9.34088867 1.3515625 10.51757812 C1.41890247 14.44013136 1.30031545 16.49925229 -0.76171875 19.9375 C-6.45982876 25.18811446 -13.47777802 25.31957018 -20.91015625 25.10546875 C-21.59980469 25.07066406 -22.28945312 25.03585938 -23 25 C-22.505 23.515 -22.505 23.515 -22 22 C-16.06 21.67 -10.12 21.34 -4 21 C-1.64282788 13.92848365 -0.4101033 7.4384254 0 0 Z " fill="#FEFCE5" transform="translate(194,40)"/>
<path d="M0 0 C0.99 0.66 1.98 1.32 3 2 C3.45291624 5.3968718 3.20314209 7.5211152 1.86328125 10.6796875 C0 13 0 13 -2.91796875 13.48828125 C-3.99691406 13.43027344 -5.07585937 13.37226562 -6.1875 13.3125 C-7.27417969 13.26738281 -8.36085937 13.22226562 -9.48046875 13.17578125 C-10.31191406 13.11777344 -11.14335938 13.05976562 -12 13 C-12 12.01 -12 11.02 -12 10 C-11.360625 9.71125 -10.72125 9.4225 -10.0625 9.125 C-7.84793921 8.17176549 -7.84793921 8.17176549 -7 6 C-5.35 6.33 -3.7 6.66 -2 7 C-2.33 8.32 -2.66 9.64 -3 11 C-2.34 11 -1.68 11 -1 11 C-1 10.34 -1 9.68 -1 9 C-0.34 9 0.32 9 1 9 C0.67 6.03 0.34 3.06 0 0 Z " fill="#902C4E" transform="translate(138,35)"/>
<path d="M0 0 C0.66 0 1.32 0 2 0 C1.67 1.98 1.34 3.96 1 6 C0.34 6 -0.32 6 -1 6 C-1.061875 6.86625 -1.12375 7.7325 -1.1875 8.625 C-2.44687729 13.85625951 -5.38575902 16.83624487 -9.6875 19.9375 C-10.450625 20.288125 -11.21375 20.63875 -12 21 C-12.66 20.67 -13.32 20.34 -14 20 C-13.34 18.68 -12.68 17.36 -12 16 C-11.01 16 -10.02 16 -9 16 C-9 15.01 -9 14.02 -9 13 C-7.68 13 -6.36 13 -5 13 C-4.67 10.36 -4.34 7.72 -4 5 C-3.01 4.67 -2.02 4.34 -1 4 C-0.26676204 1.98491642 -0.26676204 1.98491642 0 0 Z " fill="#FAEAC0" transform="translate(155,162)"/>
<path d="M0 0 C0.66 0.33 1.32 0.66 2 1 C0.02 1.99 0.02 1.99 -2 3 C-1.91253716 4.43861294 -1.80434652 5.87597508 -1.6875 7.3125 C-1.62949219 8.11300781 -1.57148437 8.91351563 -1.51171875 9.73828125 C-0.88618732 12.50303467 -0.23875447 13.28418387 2 15 C4.6068023 15.50479657 4.6068023 15.50479657 7.54296875 15.51171875 C9.15268555 15.56489258 9.15268555 15.56489258 10.79492188 15.61914062 C11.91447266 15.64169922 13.03402344 15.66425781 14.1875 15.6875 C15.31865234 15.72166016 16.44980469 15.75582031 17.61523438 15.79101562 C20.4100574 15.87356314 23.20456398 15.94269182 26 16 C26 16.33 26 16.66 26 17 C21.95857785 17.11662261 17.91759135 17.1873935 13.875 17.25 C12.73289062 17.28351563 11.59078125 17.31703125 10.4140625 17.3515625 C-0.4016644 17.47732677 -0.4016644 17.47732677 -5 13 C-5.70395333 8.86427417 -4.94732551 5.68966939 -3 2 C-2.01 1.34 -1.02 0.68 0 0 Z " fill="#F8E2A4" transform="translate(100,187)"/>
<path d="M0 0 C0 4.09632497 -1.55398196 5.76067881 -4 9 C-6.75 11.375 -6.75 11.375 -9 13 C-9.66 12.67 -10.32 12.34 -11 12 C-11.33 13.32 -11.66 14.64 -12 16 C-12.66 16 -13.32 16 -14 16 C-14.20625 16.7425 -14.4125 17.485 -14.625 18.25 C-16.42656499 21.85312998 -18.52085773 23.05168033 -22 25 C-24.375 25.75 -24.375 25.75 -26 26 C-21.375 21.125 -21.375 21.125 -18 20 C-18 19.34 -18 18.68 -18 18 C-17.34 18 -16.68 18 -16 18 C-15.87625 17.401875 -15.7525 16.80375 -15.625 16.1875 C-15 14 -15 14 -13 11 C-10.375 10.8125 -10.375 10.8125 -8 11 C-7.690625 9.948125 -7.690625 9.948125 -7.375 8.875 C-5.54218423 5.04274884 -3.09748481 2.89547493 0 0 Z " fill="#E4B75B" transform="translate(152,62)"/>
<path d="M0 0 C5.88045769 2.07545565 10.89955575 5.26871818 15 10 C15 10.66 15 11.32 15 12 C15.58265625 12.10183594 16.1653125 12.20367187 16.765625 12.30859375 C19.37219275 13.11517153 20.73535414 14.24157009 22.75 16.0625 C23.67039063 16.88427734 23.67039063 16.88427734 24.609375 17.72265625 C25.06828125 18.14417969 25.5271875 18.56570312 26 19 C23 19 23 19 20 18 C20 17.34 20 16.68 20 16 C19.38125 15.9175 18.7625 15.835 18.125 15.75 C15.32494581 14.76174558 15.25886068 13.59640015 14 11 C12.26857146 9.84077872 12.26857146 9.84077872 10 9 C8.74950996 8.4594656 7.49953908 7.91772909 6.25 7.375 C4.64125 6.694375 4.64125 6.694375 3 6 C3 4.68 3 3.36 3 2 C2.01 2.33 1.02 2.66 0 3 C0 2.01 0 1.02 0 0 Z " fill="#FBECBF" transform="translate(118,102)"/>
<path d="M0 0 C1.216875 0.04125 2.43375 0.0825 3.6875 0.125 C3.6875 0.455 3.6875 0.785 3.6875 1.125 C2.74777344 1.32416016 2.74777344 1.32416016 1.7890625 1.52734375 C0.97179687 1.70394531 0.15453125 1.88054688 -0.6875 2.0625 C-1.49960938 2.23652344 -2.31171875 2.41054688 -3.1484375 2.58984375 C-5.341963 3.04830693 -5.341963 3.04830693 -7.3125 4.125 C-7.745625 5.0840625 -7.745625 5.0840625 -8.1875 6.0625 C-9.3125 8.125 -9.3125 8.125 -11.3359375 8.77734375 C-12.31433594 9.44443359 -12.31433594 9.44443359 -13.3125 10.125 C-13.77959352 12.78982841 -14.00822473 15.07570966 -14.0625 17.75 C-14.10697266 18.80960938 -14.10697266 18.80960938 -14.15234375 19.890625 C-14.22305357 21.63480047 -14.27004035 23.37990827 -14.3125 25.125 C-14.9725 25.125 -15.6325 25.125 -16.3125 25.125 C-17.51706746 11.68355675 -17.51706746 11.68355675 -13.125 5.875 C-9.45517266 1.6215182 -5.63084762 -0.19087619 0 0 Z " fill="#E3B76B" transform="translate(177.3125,28.875)"/>
<path d="M0 0 C5.0220326 0.79714803 7.51901511 2.59715661 11.1796875 6.046875 C14.28975995 10.60831459 13.65071993 15.34188939 12.9375 20.625 C12.6075 20.625 12.2775 20.625 11.9375 20.625 C11.9375 17.985 11.9375 15.345 11.9375 12.625 C11.2775 12.625 10.6175 12.625 9.9375 12.625 C9.463125 11.820625 8.98875 11.01625 8.5 10.1875 C7.13766328 7.3331924 7.13766328 7.3331924 3.9375 6.625 C3.9375 5.305 3.9375 3.985 3.9375 2.625 C0.9675 2.625 -2.0025 2.625 -5.0625 2.625 C-3.0625 0.625 -3.0625 0.625 0 0 Z " fill="#DEAB47" transform="translate(177.0625,29.375)"/>
<path d="M0 0 C0.99 0.33 1.98 0.66 3 1 C3 1.66 3 2.32 3 3 C2.401875 3.2475 1.80375 3.495 1.1875 3.75 C-1.12832681 4.84789062 -1.12832681 4.84789062 -2.3125 7.0625 C-4.81046756 9.93053683 -7.33657155 9.72351483 -11 10 C-11.33 11.65 -11.66 13.3 -12 15 C-14.64 15 -17.28 15 -20 15 C-20 14.34 -20 13.68 -20 13 C-19.071875 12.67 -18.14375 12.34 -17.1875 12 C-12.38948727 9.98444137 -8.46384705 6.78956568 -4.35546875 3.64453125 C-2 2 -2 2 0 2 C0 1.34 0 0.68 0 0 Z " fill="#822645" transform="translate(96,153)"/>
<path d="M0 0 C0.66 0 1.32 0 2 0 C1.67 9.57 1.34 19.14 1 29 C0.34 29 -0.32 29 -1 29 C-1.02903892 24.91668161 -1.04681189 20.8333898 -1.0625 16.75 C-1.07087891 15.59113281 -1.07925781 14.43226562 -1.08789062 13.23828125 C-1.09111328 12.12324219 -1.09433594 11.00820312 -1.09765625 9.859375 C-1.10289307 8.83295898 -1.10812988 7.80654297 -1.11352539 6.74902344 C-1.01336951 4.32374344 -0.69923078 2.31302639 0 0 Z " fill="#791D3D" transform="translate(54,60)"/>
<path d="M0 0 C0.99 0 1.98 0 3 0 C6.27607814 4.91411721 5.41018201 10.41126268 5.4375 16.1875 C5.47037109 17.39470703 5.50324219 18.60191406 5.53710938 19.84570312 C5.58327001 27.52095753 4.7846027 31.93043291 0 38 C-0.33 37.34 -0.66 36.68 -1 36 C-0.67 35.01 -0.34 34.02 0 33 C0.66 33 1.32 33 2 33 C4.11550786 22.14949197 4.26043474 10.32141035 0 0 Z " fill="#EABE79" transform="translate(154,135)"/>
<path d="M0 0 C1 2 1 2 0.125 4.75 C-2.79261687 9.21223756 -6.49170119 11.29662509 -11 14 C-11.825 14.5775 -12.65 15.155 -13.5 15.75 C-17.16209986 17.58104993 -20.99320275 18.25800051 -25 19 C-25 18.34 -25 17.68 -25 17 C-22.36 16.34 -19.72 15.68 -17 15 C-17 14.34 -17 13.68 -17 13 C-13.68885166 11.87119943 -10.41021743 10.78697325 -7 10 C-6.9071875 9.1646875 -6.9071875 9.1646875 -6.8125 8.3125 C-5.66383862 5.043233 -3.51178856 3.32340442 -1 1 C-0.67 0.67 -0.34 0.34 0 0 Z " fill="#FEFBEC" transform="translate(161,187)"/>
<path d="M0 0 C3.3 0.66 6.6 1.32 10 2 C9.01 2.33 8.02 2.66 7 3 C7 3.66 7 4.32 7 5 C6.360625 5.103125 5.72125 5.20625 5.0625 5.3125 C4.381875 5.539375 3.70125 5.76625 3 6 C2.67 6.99 2.34 7.98 2 9 C-0.5625 10.1875 -0.5625 10.1875 -3 11 C-3 11.66 -3 12.32 -3 13 C-4.65 13.33 -6.3 13.66 -8 14 C-7.505 13.566875 -7.01 13.13375 -6.5 12.6875 C-4.66781808 11.00259517 -4.66781808 11.00259517 -5 8 C-3.35 7.67 -1.7 7.34 0 7 C0 4.69 0 2.38 0 0 Z " fill="#861C40" transform="translate(87,166)"/>
<path d="M0 0 C1.65 0 3.3 0 5 0 C4.34 3.96 3.68 7.92 3 12 C3.66 12 4.32 12 5 12 C5 12.66 5 13.32 5 14 C4.34 14 3.68 14 3 14 C3.33 15.65 3.66 17.3 4 19 C0.86650268 20.04449911 0.01031744 19.93423645 -3 19 C-2.34 18.54625 -1.68 18.0925 -1 17.625 C-0.34 17.08875 0.32 16.5525 1 16 C1 15.34 1 14.68 1 14 C-0.32 13.67 -1.64 13.34 -3 13 C-2.34 12.67 -1.68 12.34 -1 12 C1.33615532 9.66384468 1.29522381 9.11056097 1.3125 5.9375 C1.26492187 2.21730375 1.26492187 2.21730375 0 0 Z " fill="#932248" transform="translate(101,139)"/>
<path d="M0 0 C0 0.66 0 1.32 0 2 C-0.66 2 -1.32 2 -2 2 C-2 2.66 -2 3.32 -2 4 C-4.91955893 4.97318631 -6.71466733 5.1044373 -9.74609375 5.0625 C-10.66583984 5.05476562 -11.58558594 5.04703125 -12.53320312 5.0390625 C-14.4654955 5.01307336 -16.39778717 4.98703191 -18.33007812 4.9609375 C-19.25111328 4.95320312 -20.17214844 4.94546875 -21.12109375 4.9375 C-22.38070923 4.92009766 -22.38070923 4.92009766 -23.66577148 4.90234375 C-25.92077359 4.99668543 -27.83995152 5.36782104 -30 6 C-30 6.66 -30 7.32 -30 8 C-31.32 8.33 -32.64 8.66 -34 9 C-34 7 -34 7 -32.125 4.9375 C-27.897456 2.31642272 -23.92857194 1.95823244 -19 2 C-18.01 2.33 -17.02 2.66 -16 3 C-13.93854893 3.068991 -11.87498599 3.08467727 -9.8125 3.0625 C-8.72582031 3.05347656 -7.63914062 3.04445312 -6.51953125 3.03515625 C-5.68808594 3.02355469 -4.85664062 3.01195312 -4 3 C-4 2.34 -4 1.68 -4 1 C-2 0 -2 0 0 0 Z " fill="#A05B74" transform="translate(70,171)"/>
<path d="M0 0 C1.44246094 -0.02126953 1.44246094 -0.02126953 2.9140625 -0.04296875 C5.375 0.1875 5.375 0.1875 7.375 2.1875 C1.435 2.5175 -4.505 2.8475 -10.625 3.1875 C-10.625 3.8475 -10.625 4.5075 -10.625 5.1875 C-18.05357143 7.33035714 -18.05357143 7.33035714 -21.625 8.1875 C-21.295 7.1975 -20.965 6.2075 -20.625 5.1875 C-19.965 5.5175 -19.305 5.8475 -18.625 6.1875 C-18.625 5.5275 -18.625 4.8675 -18.625 4.1875 C-17.965 4.1875 -17.305 4.1875 -16.625 4.1875 C-16.625 3.5275 -16.625 2.8675 -16.625 2.1875 C-15.5525 2.043125 -14.48 1.89875 -13.375 1.75 C-9.91179992 1.30846418 -9.91179992 1.30846418 -7.7421875 0.6640625 C-5.12615497 0.07521385 -2.6800577 0.01805969 0 0 Z " fill="#822245" transform="translate(100.625,45.8125)"/>
<path d="M0 0 C0.33 0.99 0.66 1.98 1 3 C0.34 3 -0.32 3 -1 3 C-1 3.66 -1 4.32 -1 5 C-4.67618701 6.67767807 -7.602178 7.20721953 -11.625 7.3125 C-14.47572297 7.45102334 -14.47572297 7.45102334 -17 8 C-19.1386077 10.38987933 -19.1386077 10.38987933 -20 13 C-20.66 13 -21.32 13 -22 13 C-22.2475 13.639375 -22.495 14.27875 -22.75 14.9375 C-24 17 -24 17 -26.125 17.75 C-27.053125 17.87375 -27.053125 17.87375 -28 18 C-27.34 17.67 -26.68 17.34 -26 17 C-26 16.34 -26 15.68 -26 15 C-25.34 15 -24.68 15 -24 15 C-23.938125 14.2575 -23.87625 13.515 -23.8125 12.75 C-22.67444102 8.89810808 -21.51628655 7.96912047 -18 6 C-15.22168662 5.64478185 -12.46431994 5.49470013 -9.66796875 5.34375 C-5.48629888 4.80496969 -2.9710897 2.9710897 0 0 Z " fill="#E3AA33" transform="translate(188,51)"/>
<path d="M0 0 C-0.33 0.66 -0.66 1.32 -1 2 C-1.66 2 -2.32 2 -3 2 C-3.33 2.99 -3.66 3.98 -4 5 C-4.66 5 -5.32 5 -6 5 C-6 4.34 -6 3.68 -6 3 C-7.546875 3.9590625 -7.546875 3.9590625 -9.125 4.9375 C-12.38609658 6.81711371 -15.22046944 7.63126531 -19 8 C-12.62734152 1.45032323 -9.28759674 -1.8997357 0 0 Z " fill="#7C1E3E" transform="translate(86,36)"/>
<path d="M0 0 C-0.04640625 0.90363281 -0.0928125 1.80726562 -0.140625 2.73828125 C-0.17671875 3.91777344 -0.2128125 5.09726563 -0.25 6.3125 C-0.29640625 7.48425781 -0.3428125 8.65601562 -0.390625 9.86328125 C-0.30663672 13.03904971 -0.30663672 13.03904971 1.75 14.875 C5.19464714 16.59732357 8.17641757 16.68136813 12 17 C12 17.33 12 17.66 12 18 C10.56260487 18.02712066 9.12506137 18.04645067 7.6875 18.0625 C6.48673828 18.07990234 6.48673828 18.07990234 5.26171875 18.09765625 C1.88453968 17.95183677 0.27670866 17.26089673 -2.1875 14.9375 C-4.70204741 10.86219902 -4.52770344 8.74933099 -4 4 C-1.7 0 -1.7 0 0 0 Z " fill="#E6BD74" transform="translate(90,71)"/>
<path d="M0 0 C0 0.99 0 1.98 0 3 C-1 4 -2 5 -3 6 C-5.20140361 10.07259667 -4.98008733 12.54505758 -4 17 C-3.66140041 19.33257494 -3.3267961 21.66574212 -3 24 C-6.15583533 22.42208234 -6.71102897 20.22242758 -8 17 C-8.89381854 12.04336989 -8.89381854 12.04336989 -8 9 C-5.63088007 5.68116751 -2.93144531 2.82675083 0 0 Z " fill="#FAE4B2" transform="translate(149,82)"/>
<path d="M0 0 C0.66 0 1.32 0 2 0 C1.1875 2.9375 1.1875 2.9375 0 6 C-0.99 6.33 -1.98 6.66 -3 7 C-4.64309518 10.28619036 -3.90380863 13.85604243 -3.7421875 17.46875 C-3.82726562 18.3040625 -3.91234375 19.139375 -4 20 C-4.99 20.66 -5.98 21.32 -7 22 C-7.13501894 19.56065775 -7.23403897 17.12875896 -7.3125 14.6875 C-7.35439453 13.99720703 -7.39628906 13.30691406 -7.43945312 12.59570312 C-7.48828125 10.57421875 -7.48828125 10.57421875 -7 7 C-4.5625 5.15625 -4.5625 5.15625 -2 4 C-0.67206394 1.93299345 -0.67206394 1.93299345 0 0 Z " fill="#E5AA37" transform="translate(170,32)"/>
<path d="M0 0 C5.70210163 4.40616944 9.72706865 8.99179499 12 16 C12 16.99 12 17.98 12 19 C11.01 19 10.02 19 9 19 C8.814375 18.01 8.62875 17.02 8.4375 16 C7.24447682 11.64325609 4.5968596 9.0368532 1.4609375 5.89453125 C0 4 0 4 0 0 Z " fill="#F9E8B9" transform="translate(144,122)"/>
<path d="M0 0 C0.66 0 1.32 0 2 0 C0.58226538 3.54433654 -0.67612238 4.33806119 -4 6 C-4.70151152 7.3153341 -5.36525925 8.65117592 -6 10 C-8 12.25 -8 12.25 -10 14 C-10.66 14 -11.32 14 -12 14 C-11.3986014 8.58741259 -11.3986014 8.58741259 -9.8125 6.25 C-8 5 -8 5 -4.9375 4 C-1.71801108 3.23665888 -1.71801108 3.23665888 0 0 Z " fill="#E8BC65" transform="translate(166,64)"/>
<path d="M0 0 C1.14626322 0.97866338 2.29199788 1.95794587 3.4375 2.9375 C4.07558594 3.48277344 4.71367187 4.02804688 5.37109375 4.58984375 C7.98488427 6.85262163 7.98488427 6.85262163 8.25 9.4375 C8.1675 10.283125 8.085 11.12875 8 12 C7.01 12.66 6.02 13.32 5 14 C4.67 12.02 4.34 10.04 4 8 C3.34 8 2.68 8 2 8 C2 7.34 2 6.68 2 6 C1.01 5.67 0.02 5.34 -1 5 C-0.67 3.35 -0.34 1.7 0 0 Z " fill="#803450" transform="translate(127,138)"/>
<path d="M0 0 C2.125 0.375 2.125 0.375 4 1 C5.125 5.75 5.125 5.75 4 8 C2.02 8 0.04 8 -2 8 C-2.125 5.125 -2.125 5.125 -2 2 C-1.34 1.34 -0.68 0.68 0 0 Z " fill="#F3A61C" transform="translate(94,73)"/>
<path d="M0 0 C9.03199117 -0.62051848 9.03199117 -0.62051848 12.4375 1.5625 C14.3978303 4.62061527 15.81327005 7.5647291 17 11 C16.67 11.99 16.34 12.98 16 14 C12.35243335 11.5682889 12.26912796 10.06120946 11 6 C10.34 5.34 9.68 4.68 9 4 C9 3.01 9 2.02 9 1 C6.03 1 3.06 1 0 1 C0 0.67 0 0.34 0 0 Z " fill="#FAE9B8" transform="translate(93,68)"/>
<path d="M0 0 C0.99 0 1.98 0 3 0 C3.103125 0.639375 3.20625 1.27875 3.3125 1.9375 C3.539375 2.618125 3.76625 3.29875 4 4 C4.99 4.33 5.98 4.66 7 5 C7.33 6.65 7.66 8.3 8 10 C7.01 10.33 6.02 10.66 5 11 C4.34 9.35 3.68 7.7 3 6 C2.01 6 1.02 6 0 6 C-1.125 2.25 -1.125 2.25 0 0 Z " fill="#E7AA23" transform="translate(147,111)"/>
<path d="M0 0 C-3.05440102 3.02302019 -5.56947844 3.34125473 -9.78948975 3.33988953 C-10.90689545 3.31666374 -10.90689545 3.31666374 -12.046875 3.29296875 C-12.81807678 3.28872391 -13.58927856 3.28447906 -14.3838501 3.28010559 C-16.83959315 3.26335383 -19.29450629 3.22570939 -21.75 3.1875 C-23.41795687 3.17244857 -25.08592665 3.15876097 -26.75390625 3.14648438 C-30.83625578 3.11346194 -34.91798732 3.06170484 -39 3 C-39 2.67 -39 2.34 -39 2 C-28.11 2 -17.22 2 -6 2 C-6 1.34 -6 0.68 -6 0 C-2.25 -1.125 -2.25 -1.125 0 0 Z " fill="#EBC273" transform="translate(141,184)"/>
<path d="M0 0 C-3.75 2 -3.75 2 -6 2 C-6.33 2.99 -6.66 3.98 -7 5 C-7.66 5 -8.32 5 -9 5 C-10.57077907 10.02649303 -11.44854729 14.76119922 -12 20 C-12.33 20 -12.66 20 -13 20 C-14.43697694 10.11429119 -14.43697694 10.11429119 -12.75 5.8125 C-11.88375 4.9153125 -11.88375 4.9153125 -11 4 C-10.01 4 -9.02 4 -8 4 C-8 3.01 -8 2.02 -8 1 C-5.07175348 0.02391783 -3.04386724 -0.08226668 0 0 Z " fill="#F2DAE8" transform="translate(45,173)"/>
<path d="M0 0 C1.32 0 2.64 0 4 0 C4 0.99 4 1.98 4 3 C4.763125 3.0825 5.52625 3.165 6.3125 3.25 C9.59032326 4.16474137 10.06955396 5.31416203 12 8 C14.09415804 8.79623822 14.09415804 8.79623822 16 9 C16.33 10.65 16.66 12.3 17 14 C16.0925 13.38125 15.185 12.7625 14.25 12.125 C11.28324967 10.04840875 11.28324967 10.04840875 8.9375 9.125 C5.92413832 7.37530612 4.14220911 4.70594835 2 2 C1.34 1.34 0.68 0.68 0 0 Z " fill="#EAB760" transform="translate(126,106)"/>
<path d="M0 0 C0.66 0.33 1.32 0.66 2 1 C1.175 1.825 0.35 2.65 -0.5 3.5 C-2.62629234 6.04793672 -3.38069069 7.73599958 -3.4375 11.0625 C-3.05621311 14.49408203 -2.53086983 16.93826034 -1 20 C-3.5 18.625 -3.5 18.625 -6 16 C-6.44908891 12.62919149 -6.29036649 9.38115651 -6 6 C-5.34 6 -4.68 6 -4 6 C-3.67 4.35 -3.34 2.7 -3 1 C-2.01 0.67 -1.02 0.34 0 0 Z " fill="#DFAC42" transform="translate(145,84)"/>
<path d="M0 0 C6.27162595 1.49788348 10.87491293 2.71473219 15 8 C16.3125 10.3125 16.3125 10.3125 17 12 C13.01636642 10.67212214 10.89369166 8.99014805 8 6 C7.01 5.67 6.02 5.34 5 5 C5 4.34 5 3.68 5 3 C2.525 2.01 2.525 2.01 0 1 C0 0.67 0 0.34 0 0 Z " fill="#F0CEDD" transform="translate(100,118)"/>
<path d="M0 0 C1.546875 0.8971875 1.546875 0.8971875 3.125 1.8125 C8.80761839 5.03036825 13.38171524 7.33817152 20 8 C16.54337669 10.30441554 15.05142119 10.25860135 11 10 C10.34 9.67 9.68 9.34 9 9 C9 8.34 9 7.68 9 7 C7.88625 6.773125 6.7725 6.54625 5.625 6.3125 C2 5 2 5 0.5625 2.375 C0.376875 1.59125 0.19125 0.8075 0 0 Z " fill="#E7B760" transform="translate(106,80)"/>
<path d="M0 0 C0.66 0.33 1.32 0.66 2 1 C1.04945229 3.50598942 0.09433287 4.91783912 -1.9375 6.6875 C-6.4906595 8.63885407 -11.0908664 8.75067448 -16 9 C-13.03613966 7.02409311 -10.07091912 5.50465552 -6.875 3.9375 C-3.19709011 2.32806646 -3.19709011 2.32806646 0 0 Z " fill="#F8E4B1" transform="translate(154,192)"/>
<path d="M0 0 C0.99 0 1.98 0 3 0 C2.67 0.99 2.34 1.98 2 3 C1.34 3 0.68 3 0 3 C-1.20628008 5.33214148 -2.1654738 7.49642139 -3 10 C-3.66 10 -4.32 10 -5 10 C-5 10.66 -5 11.32 -5 12 C-6.98 12.99 -6.98 12.99 -9 14 C-8.34 11.69 -7.68 9.38 -7 7 C-6.01 7 -5.02 7 -4 7 C-4 6.01 -4 5.02 -4 4 C-3.01 4 -2.02 4 -1 4 C-0.67 2.68 -0.34 1.36 0 0 Z " fill="#FAECC2" transform="translate(139,70)"/>
<path d="M0 0 C0.66 0.33 1.32 0.66 2 1 C1.34 2.98 0.68 4.96 0 7 C-0.66 7 -1.32 7 -2 7 C-1.34 9.64 -0.68 12.28 0 15 C-2 14.0625 -2 14.0625 -4 12 C-4.59733957 8.9156601 -4.59733957 6.0843399 -4 3 C-2 0.9375 -2 0.9375 0 0 Z " fill="#DFB054" transform="translate(102,187)"/>
<path d="M0 0 C-1.95616637 4.62366596 -4.96962437 8.79274963 -9.3125 11.375 C-9.869375 11.58125 -10.42625 11.7875 -11 12 C-9.94124926 8.59687262 -8.99097846 5.98646769 -7 3 C-6.01 3 -5.02 3 -4 3 C-4 2.34 -4 1.68 -4 1 C-2 0 -2 0 0 0 Z " fill="#E9C6D6" transform="translate(74,183)"/>
<path d="M0 0 C3.90285767 1.58667578 6.33520982 4.13350481 9.25 7.125 C10.14203125 8.03507812 11.0340625 8.94515625 11.953125 9.8828125 C12.62859375 10.58148438 13.3040625 11.28015625 14 12 C13.67 12.66 13.34 13.32 13 14 C6.5530693 11.37347268 3.0054486 6.01089719 0 0 Z " fill="#EAC46F" transform="translate(146,106)"/>
<path d="M0 0 C3.25543229 0.34879632 4.01873107 1.02133261 6.25 3.5625 C6.8275 4.366875 7.405 5.17125 8 6 C4.66666667 6 1.33333333 6 -2 6 C-1.49396008 3.83125748 -1.00016187 2.00032373 0 0 Z " fill="#DEAC2E" transform="translate(142,105)"/>
<path d="M0 0 C-1.11375 0.33 -2.2275 0.66 -3.375 1 C-8.30319815 2.81287289 -11.92243567 5.89729083 -15.8984375 9.2578125 C-18 11 -18 11 -20 12 C-18.49359964 8.16552636 -16.16324414 6.53059531 -13 4 C-12.566875 2.9171875 -12.566875 2.9171875 -12.125 1.8125 C-11 0 -11 0 -7.625 -0.8125 C-4.57790724 -0.97010825 -2.83321462 -0.81751347 0 0 Z " fill="#D2AABA" transform="translate(83,35)"/>
<path d="M0 0 C9.25401683 -0.31369549 9.25401683 -0.31369549 13 2 C14.91359909 5.37157936 15.21913264 8.16517886 15 12 C13 10 13 10 12.5625 7.0625 C11.31912339 3.8047093 11.31912339 3.8047093 8.42578125 2.94140625 C5.62831598 2.19278878 2.84426672 1.54221807 0 1 C0 0.67 0 0.34 0 0 Z " fill="#FDFBE6" transform="translate(179,28)"/>
<path d="M0 0 C1 3 1 3 -0.07421875 5.19140625 C-0.60660156 5.97386719 -1.13898437 6.75632812 -1.6875 7.5625 C-2.20699219 8.34753906 -2.72648437 9.13257813 -3.26171875 9.94140625 C-5.05639264 12.06678409 -6.44536515 12.97035415 -9 14 C-8.731875 13.484375 -8.46375 12.96875 -8.1875 12.4375 C-6.8839753 9.84943081 -6.8839753 9.84943081 -5.625 6.4375 C-4.04888857 3.10341812 -3.11279845 1.82474392 0 0 Z " fill="#7C2141" transform="translate(65,45)"/>
<path d="M0 0 C3.96 0.99 3.96 0.99 8 2 C8 2.99 8 3.98 8 5 C4.7 5 1.4 5 -2 5 C-1.34 3.35 -0.68 1.7 0 0 Z " fill="#910939" transform="translate(107,130)"/>
<path d="M0 0 C2.475 0.495 2.475 0.495 5 1 C5 1.66 5 2.32 5 3 C5.83144531 3 6.66289063 3 7.51953125 3 C11.6796875 3 15.83984375 3 20 3 C17.56511169 5.33749278 16.13783135 5.98144578 12.75 6.4375 C8.2488794 5.91236926 4.76469669 4.51591925 1 2 C0.67 1.34 0.34 0.68 0 0 Z " fill="#FAE3B0" transform="translate(110,82)"/>
<path d="M0 0 C-1.45399296 3.83325416 -3.3080115 5.28279605 -7 7 C-9.8125 7.1875 -9.8125 7.1875 -12 7 C-12 6.34 -12 5.68 -12 5 C-8.45762277 2.57094133 -4.39938463 0 0 0 Z " fill="#DFC1CD" transform="translate(106,164)"/>
<path d="M0 0 C0.2475 0.61875 0.495 1.2375 0.75 1.875 C2.20628639 4.35068687 3.37812506 4.95125002 6 6 C6 6.66 6 7.32 6 8 C7.98 8 9.96 8 12 8 C12.33 8.66 12.66 9.32 13 10 C5.88991889 10.4820394 5.88991889 10.4820394 2 8.375 C0 6 0 6 -0.3125 2.75 C-0.209375 1.8425 -0.10625 0.935 0 0 Z " fill="#E2A643" transform="translate(89,78)"/>
<path d="M0 0 C2.31 0 4.62 0 7 0 C7 3 7 3 5.6875 4.6875 C4 6 4 6 1 6 C0.67 4.02 0.34 2.04 0 0 Z " fill="#F0AA18" transform="translate(125,189)"/>
<path d="M0 0 C0.66 0 1.32 0 2 0 C0.80100302 3.0831351 -0.47700477 6.06279492 -2 9 C-3.32 8.34 -4.64 7.68 -6 7 C-5.67 5.68 -5.34 4.36 -5 3 C-4.360625 2.87625 -3.72125 2.7525 -3.0625 2.625 C-2.0415625 2.315625 -2.0415625 2.315625 -1 2 C-0.67 1.34 -0.34 0.68 0 0 Z " fill="#EFA91D" transform="translate(146,74)"/>
<path d="M0 0 C4.62 0 9.24 0 14 0 C13.67 0.66 13.34 1.32 13 2 C10.85546875 2.66796875 10.85546875 2.66796875 8.1875 3.1875 C7.31480469 3.36667969 6.44210938 3.54585937 5.54296875 3.73046875 C3.02642222 3.99719949 1.38332645 3.78333107 -1 3 C-0.67 2.01 -0.34 1.02 0 0 Z " fill="#E2BFCD" transform="translate(42,203)"/>
<path d="M0 0 C-0.99 0.33 -1.98 0.66 -3 1 C-3 1.66 -3 2.32 -3 3 C-8.94 3.495 -8.94 3.495 -15 4 C-15 3.34 -15 2.68 -15 2 C-9.92523206 0.73694665 -5.27203646 -0.27036084 0 0 Z " fill="#8D3F5A" transform="translate(132,152)"/>
<path d="M0 0 C1.27875 0.28875 2.5575 0.5775 3.875 0.875 C4.95394531 1.11863281 4.95394531 1.11863281 6.0546875 1.3671875 C8 2 8 2 10 4 C10 4.99 10 5.98 10 7 C10.66 7 11.32 7 12 7 C11.67 7.66 11.34 8.32 11 9 C9.16384919 7.69144447 7.33114211 6.37805538 5.5 5.0625 C4.4790625 4.33160156 3.458125 3.60070312 2.40625 2.84765625 C1.6121875 2.23792969 0.818125 1.62820312 0 1 C0 0.67 0 0.34 0 0 Z " fill="#E6BDCF" transform="translate(117,130)"/>
<path d="M0 0 C2.29240007 0.05985379 4.58406206 0.14859027 6.875 0.25 C8.78925781 0.31960937 8.78925781 0.31960937 10.7421875 0.390625 C14 1 14 1 15.4453125 3.046875 C15.62835938 3.69140625 15.81140625 4.3359375 16 5 C15.34 4.67 14.68 4.34 14 4 C11.21126807 3.76433251 8.42391743 3.61798783 5.62890625 3.4765625 C2.71842122 2.948956 1.80061991 2.28281982 0 0 Z " fill="#FEFCE6" transform="translate(89,90)"/>
<path d="M0 0 C0.90105469 0.19464844 1.80210938 0.38929687 2.73046875 0.58984375 C3.41753906 0.74582031 4.10460937 0.90179688 4.8125 1.0625 C4.4825 1.7225 4.1525 2.3825 3.8125 3.0625 C2.37510487 3.08962066 0.93756137 3.10895067 -0.5 3.125 C-1.70076172 3.14240234 -1.70076172 3.14240234 -2.92578125 3.16015625 C-5.1875 3.0625 -5.1875 3.0625 -8.1875 2.0625 C-8.1875 1.4025 -8.1875 0.7425 -8.1875 0.0625 C-4.80475734 -1.06508089 -3.41971777 -0.75500262 0 0 Z " fill="#FEFADE" transform="translate(123.1875,82.9375)"/>
<path d="M0 0 C3.4865065 2.32433767 3.86599377 3.52250506 5.25 7.375 C5.60578125 8.33148438 5.9615625 9.28796875 6.328125 10.2734375 C7.0100165 13.04064834 6.9732027 14.36736194 6 17 C5.18167278 15.10667466 4.37057732 13.21022267 3.5625 11.3125 C3.11003906 10.25675781 2.65757812 9.20101562 2.19140625 8.11328125 C1.14552545 5.38027471 0.46479252 2.87957663 0 0 Z " fill="#E8BD77" transform="translate(165,128)"/>
<path d="M0 0 C0 4.09632497 -1.55398196 5.76067881 -4 9 C-6.75 11.375 -6.75 11.375 -9 13 C-9.66 12.34 -10.32 11.68 -11 11 C-10.01 11 -9.02 11 -8 11 C-7.79375 10.29875 -7.5875 9.5975 -7.375 8.875 C-5.54218423 5.04274884 -3.09748481 2.89547493 0 0 Z " fill="#DFB14B" transform="translate(152,62)"/>
<path d="M0 0 C1.00698122 4.02792488 0.86376936 5.79078668 0.0625 9.75 C-0.13214844 10.73484375 -0.32679688 11.7196875 -0.52734375 12.734375 C-0.68332031 13.48203125 -0.83929688 14.2296875 -1 15 C-1.99 15.33 -2.98 15.66 -4 16 C-2.68 10.72 -1.36 5.44 0 0 Z " fill="#FCF5D5" transform="translate(173,162)"/>
<path d="M0 0 C0.99 0.33 1.98 0.66 3 1 C2.67 4.63 2.34 8.26 2 12 C1.34 12 0.68 12 0 12 C0 8.04 0 4.08 0 0 Z " fill="#EFA747" transform="translate(159,145)"/>
<path d="M0 0 C0.33 0.66 0.66 1.32 1 2 C0.34 2 -0.32 2 -1 2 C-1.33 3.65 -1.66 5.3 -2 7 C-4.64 7 -7.28 7 -10 7 C-10 6.34 -10 5.68 -10 5 C-8.27473958 4.28385417 -6.54947917 3.56770833 -4.82421875 2.8515625 C-2.73466068 1.93193308 -2.73466068 1.93193308 0 0 Z " fill="#8D3452" transform="translate(86,161)"/>
<path d="M0 0 C0.99 0 1.98 0 3 0 C5.4294516 3.6441774 5.16179575 5.71241272 5 10 C4.34 10 3.68 10 3 10 C2.01 6.7 1.02 3.4 0 0 Z " fill="#EDB764" transform="translate(154,135)"/>
<path d="M0 0 C0.66 1.32 1.32 2.64 2 4 C1.01 5.485 1.01 5.485 0 7 C-3.125 7.1875 -3.125 7.1875 -6 7 C-5.34 6.67 -4.68 6.34 -4 6 C-3.3162955 4.67532254 -2.65035814 3.34136367 -2 2 C-1.34 1.34 -0.68 0.68 0 0 Z " fill="#E4AE4B" transform="translate(152,174)"/>
<path d="M0 0 C-1.56020867 0.65134925 -3.12328579 1.29582964 -4.6875 1.9375 C-5.55761719 2.29714844 -6.42773438 2.65679687 -7.32421875 3.02734375 C-9.88179265 3.9570312 -12.3221323 4.54162625 -15 5 C-10.46319426 0.24715589 -6.45765622 -1.82349953 0 0 Z " fill="#E7BFCF" transform="translate(126,156)"/>
<path d="M0 0 C0.99 0.495 0.99 0.495 2 1 C2.33 1.99 2.66 2.98 3 4 C5.50447516 5.21869929 5.50447516 5.21869929 8 6 C8 7.65 8 9.3 8 11 C1.29540481 7.04376368 1.29540481 7.04376368 0.0625 2.6875 C0.041875 1.800625 0.02125 0.91375 0 0 Z " fill="#FEF5DB" transform="translate(145,100)"/>
<path d="M0 0 C0.66 0.33 1.32 0.66 2 1 C-1.30098652 6.08902088 -4.41889673 7.23265063 -10 9 C-9.375 7.125 -9.375 7.125 -8 5 C-6.01276732 4.29618843 -4.01222047 3.6288189 -2 3 C-1.34 2.01 -0.68 1.02 0 0 Z " fill="#E5BE6A" transform="translate(160,186)"/>
<path d="M0 0 C1.63461455 3.26922911 0.58259331 6.62453529 0.15625 10.17578125 C0.0001189 12.9978509 0.32318301 15.26784908 1 18 C-1.11837435 16.28965026 -1.93215826 15.43039385 -2.36328125 12.6953125 C-2.19372657 4.11323732 -2.19372657 4.11323732 0 0 Z " fill="#9A6378" transform="translate(35,180)"/>
<path d="M0 0 C0 0.99 0 1.98 0 3 C-1.96875 4.60546875 -1.96875 4.60546875 -4.5 6.1875 C-5.3353125 6.71730469 -6.170625 7.24710938 -7.03125 7.79296875 C-7.6809375 8.19128906 -8.330625 8.58960938 -9 9 C-7.48358862 4.38183807 -7.48358862 4.38183807 -5.2734375 2.63671875 C-3.515625 1.7578125 -1.7578125 0.87890625 0 0 Z " fill="#F7DFEB" transform="translate(81,179)"/>
<path d="M0 0 C2.64 0 5.28 0 8 0 C6.515 1.98 6.515 1.98 5 4 C3.35 3.67 1.7 3.34 0 3 C0 2.01 0 1.02 0 0 Z " fill="#822142" transform="translate(54,176)"/>
<path d="M0 0 C1.65 0 3.3 0 5 0 C4.85892253 1.45880109 4.71197585 2.91703551 4.5625 4.375 C4.48128906 5.18710938 4.40007812 5.99921875 4.31640625 6.8359375 C4 9 4 9 3 11 C2.34 10.67 1.68 10.34 1 10 C1.03255208 7.98177083 1.06510417 5.96354167 1.09765625 3.9453125 C1.12649242 1.91814596 1.12649242 1.91814596 0 0 Z " fill="#9D4D6B" transform="translate(101,139)"/>
<path d="M0 0 C1.98 0 3.96 0 6 0 C6 0.66 6 1.32 6 2 C6.66 2.33 7.32 2.66 8 3 C7.67 3.33 7.34 3.66 7 4 C4.66055264 3.71269945 2.3260857 3.38063221 0 3 C0 2.01 0 1.02 0 0 Z " fill="#910936" transform="translate(86,123)"/>
<path d="M0 0 C0.33 0.99 0.66 1.98 1 3 C1.66 3 2.32 3 3 3 C2.67 3.99 2.34 4.98 2 6 C1.77439324 8.39254576 1.59151405 10.78928123 1.4375 13.1875 C1.35371094 14.45980469 1.26992187 15.73210937 1.18359375 17.04296875 C1.12300781 18.01878906 1.06242187 18.99460937 1 20 C0.67 20 0.34 20 0 20 C0 13.4 0 6.8 0 0 Z " fill="#852B4B" transform="translate(66,64)"/>
<path d="M0 0 C-0.33 0.66 -0.66 1.32 -1 2 C-1.66 2 -2.32 2 -3 2 C-3.33 2.99 -3.66 3.98 -4 5 C-4.66 5 -5.32 5 -6 5 C-6 4.01 -6 3.02 -6 2 C-7.65 2 -9.3 2 -11 2 C-10 0 -10 0 -8.3125 -0.6875 C-5.37519398 -1.08443325 -2.88840266 -0.59080963 0 0 Z " fill="#8E264B" transform="translate(86,36)"/>
<path d="M0 0 C-3.75 3 -3.75 3 -6 3 C-6 3.66 -6 4.32 -6 5 C-7.65 5.33 -9.3 5.66 -11 6 C-10.505 5.566875 -10.01 5.13375 -9.5 4.6875 C-7.66781808 3.00259517 -7.66781808 3.00259517 -8 0 C-2.25 -1.125 -2.25 -1.125 0 0 Z " fill="#AE6884" transform="translate(90,174)"/>
<path d="M0 0 C0.86625 0.3403125 0.86625 0.3403125 1.75 0.6875 C-0.23 1.6775 -0.23 1.6775 -2.25 2.6875 C-2.25 3.3475 -2.25 4.0075 -2.25 4.6875 C-3.9 5.3475 -5.55 6.0075 -7.25 6.6875 C-6.87492618 3.96821483 -6.40781339 2.84531339 -4.4375 0.875 C-2.25 -0.3125 -2.25 -0.3125 0 0 Z " fill="#EECEDE" transform="translate(98.25,150.3125)"/>
<path d="M0 0 C2.46800047 1.15173355 4.04783565 2.04783565 6 4 C6.1953125 6.3828125 6.1953125 6.3828125 6.125 9.125 C6.10695312 10.03507812 6.08890625 10.94515625 6.0703125 11.8828125 C6.04710937 12.58148438 6.02390625 13.28015625 6 14 C5.67 14 5.34 14 5 14 C5 11.36 5 8.72 5 6 C4.34 6 3.68 6 3 6 C2.01 4.02 1.02 2.04 0 0 Z " fill="#E6A63F" transform="translate(184,36)"/>
<path d="M0 0 C1.29640378 0.59393382 2.58698839 1.20057989 3.875 1.8125 C4.59429687 2.14894531 5.31359375 2.48539062 6.0546875 2.83203125 C8 4 8 4 10 7 C2.18363463 5.08277831 2.18363463 5.08277831 0 2 C0 1.34 0 0.68 0 0 Z " fill="#FBEABD" transform="translate(108,95)"/>
<path d="M0 0 C2.52615842 3.12762471 4.26798012 6.37850388 6 10 C6.33 10.66 6.66 11.32 7 12 C5 11 3 10 1 9 C0.5859375 6.93359375 0.5859375 6.93359375 0.375 4.4375 C0.30023438 3.61121094 0.22546875 2.78492187 0.1484375 1.93359375 C0.09945312 1.29550781 0.05046875 0.65742187 0 0 Z " fill="#9D546E" transform="translate(68,87)"/>
<path d="M0 0 C2 1.375 2 1.375 4 3 C4 3.66 4 4.32 4 5 C4.99 5 5.98 5 7 5 C7 5.66 7 6.32 7 7 C4.625 7.1875 4.625 7.1875 2 7 C0 4 0 4 0 0 Z " fill="#FCF0C8" transform="translate(86,83)"/>
<path d="M0 0 C0.66 0 1.32 0 2 0 C1.38722388 2.96175123 0.74627478 4.38058783 -1 7 C-2.32 6.67 -3.64 6.34 -5 6 C-3.38405168 3.95880212 -1.7143618 1.95927063 0 0 Z " fill="#FEF6E2" transform="translate(145,63)"/>
<path d="M0 0 C1.98 0.99 1.98 0.99 4 2 C4 2.99 4 3.98 4 5 C4.66 5 5.32 5 6 5 C6 5.66 6 6.32 6 7 C4.68 7 3.36 7 2 7 C0.5393715 4.35261084 0 3.10551666 0 0 Z " fill="#791C3E" transform="translate(117,131)"/>
<path d="M0 0 C0.66 0 1.32 0 2 0 C4 7.625 4 7.625 4 11 C2 9.4375 2 9.4375 0 7 C-0.25 3.25 -0.25 3.25 0 0 Z " fill="#EDC46C" transform="translate(139,93)"/>
<path d="M0 0 C0 0.99 0 1.98 0 3 C-1.3921875 2.7215625 -1.3921875 2.7215625 -2.8125 2.4375 C-6.01343771 1.75876119 -6.01343771 1.75876119 -9 3 C-9.33 3.99 -9.66 4.98 -10 6 C-10 4.35 -10 2.7 -10 1 C-6.52674819 -0.1577506 -3.63932552 -0.06866652 0 0 Z " fill="#E3AA29" transform="translate(100,72)"/>
<path d="M0 0 C2.97 0 5.94 0 9 0 C9 0.33 9 0.66 9 1 C7.35 1 5.7 1 4 1 C4 1.66 4 2.32 4 3 C2.35 3.66 0.7 4.32 -1 5 C-0.67 3.35 -0.34 1.7 0 0 Z " fill="#FCF1D5" transform="translate(89,67)"/>
<path d="M0 0 C0.99 0.33 1.98 0.66 3 1 C2.34 2.65 1.68 4.3 1 6 C-0.65 6 -2.3 6 -4 6 C-2.68 4.02 -1.36 2.04 0 0 Z " fill="#E3AB3F" transform="translate(160,54)"/>
<path d="M0 0 C-0.6875 2.375 -0.6875 2.375 -2 5 C-4.625 6.3125 -4.625 6.3125 -7 7 C-7 6.34 -7 5.68 -7 5 C-6.34 5 -5.68 5 -5 5 C-4.87625 4.360625 -4.7525 3.72125 -4.625 3.0625 C-4.41875 2.381875 -4.2125 1.70125 -4 1 C-2 0 -2 0 0 0 Z " fill="#91425D" transform="translate(75,168)"/>
<path d="M0 0 C3.91402949 1.26941497 5.79072873 2.51167694 8 6 C6.68 6.33 5.36 6.66 4 7 C4 6.34 4 5.68 4 5 C3.34 4.67 2.68 4.34 2 4 C2.33 3.34 2.66 2.68 3 2 C2.01 2 1.02 2 0 2 C0 1.34 0 0.68 0 0 Z " fill="#F0D7E2" transform="translate(84,128)"/>
<path d="M0 0 C4.875 3.625 4.875 3.625 6 7 C2.08597051 5.73058503 0.20927127 4.48832306 -2 1 C-1.34 0.67 -0.68 0.34 0 0 Z " fill="#DDB9C7" transform="translate(111,123)"/>
<path d="M0 0 C0.99 0 1.98 0 3 0 C3 1.98 3 3.96 3 6 C1.68 6 0.36 6 -1 6 C-0.67 4.02 -0.34 2.04 0 0 Z " fill="#E8AC1E" transform="translate(135,93)"/>
<path d="M0 0 C-0.66 0.66 -1.32 1.32 -2 2 C-5.0625 1.75 -5.0625 1.75 -8 1 C-8.33 0.34 -8.66 -0.32 -9 -1 C-5.38055101 -2.34053666 -3.42632833 -1.61798838 0 0 Z " fill="#891A41" transform="translate(117,130)"/>
<path d="M0 0 C0 0.99 0 1.98 0 3 C-0.99 3.33 -1.98 3.66 -3 4 C-3.99 3.34 -4.98 2.68 -6 2 C-6 1.34 -6 0.68 -6 0 C-3.50907189 -1.24546405 -2.58919267 -0.7767578 0 0 Z " fill="#7B1537" transform="translate(90,118)"/>
<path d="M0 0 C1.485 0.99 1.485 0.99 3 2 C3 2.66 3 3.32 3 4 C2.34 4 1.68 4 1 4 C1 5.65 1 7.3 1 9 C0.34 9 -0.32 9 -1 9 C-1.125 2.25 -1.125 2.25 0 0 Z " fill="#781438" transform="translate(68,58)"/>
<path d="M0 0 C1.98 0 3.96 0 6 0 C4 3 4 3 0.875 3.6875 C-0.07375 3.790625 -1.0225 3.89375 -2 4 C-1.34 2.68 -0.68 1.36 0 0 Z " fill="#EFCEDF" transform="translate(84,51)"/>
<path d="M0 0 C1.65 0 3.3 0 5 0 C3.7508258 3.45925163 2.32472205 6.14693203 0 9 C0 6.03 0 3.06 0 0 Z " fill="#CDA5B6" transform="translate(55,51)"/>
<path d="M0 0 C0.66 0.33 1.32 0.66 2 1 C0.02 1.99 0.02 1.99 -2 3 C-1.67 3.99 -1.34 4.98 -1 6 C-1.66 6.66 -2.32 7.32 -3 8 C-3.99 7.67 -4.98 7.34 -6 7 C-5.34 6.34 -4.68 5.68 -4 5 C-3.855625 4.319375 -3.71125 3.63875 -3.5625 2.9375 C-3.376875 2.298125 -3.19125 1.65875 -3 1 C-2.01 0.67 -1.02 0.34 0 0 Z " fill="#7E1337" transform="translate(69,43)"/>
<path d="M0 0 C-3.95523655 2.75668002 -7.22423661 3.5317879 -12 4 C-4 -1.33333333 -4 -1.33333333 0 0 Z " fill="#F0D18E" transform="translate(150,197)"/>
<path d="M0 0 C0.33 0.66 0.66 1.32 1 2 C-0.125 4.5625 -0.125 4.5625 -2 7 C-4.6875 7.8125 -4.6875 7.8125 -7 8 C-6.02133662 6.85373678 -5.04205413 5.70800212 -4.0625 4.5625 C-3.51722656 3.92441406 -2.97195312 3.28632813 -2.41015625 2.62890625 C-1.63204305 1.73008851 -0.84063472 0.84063472 0 0 Z " fill="#FDF3D5" transform="translate(161,187)"/>
<path d="M0 0 C0.66 0.33 1.32 0.66 2 1 C0.52307692 6.66153846 0.52307692 6.66153846 -2.125 8.375 C-2.74375 8.58125 -3.3625 8.7875 -4 9 C-2.94124926 5.59687262 -1.99097846 2.98646769 0 0 Z " fill="#D09BAF" transform="translate(67,186)"/>
<path d="M0 0 C-0.33 0.99 -0.66 1.98 -1 3 C-2.98 3.33 -4.96 3.66 -7 4 C-6.67 3.01 -6.34 2.02 -6 1 C-4 0 -4 0 0 0 Z " fill="#FEF4DC" transform="translate(142,180)"/>
<path d="M0 0 C2.475 0.99 2.475 0.99 5 2 C2.47211993 4.79872437 0.79588866 6.45773019 -3 7 C-3 6.34 -3 5.68 -3 5 C-2.01 5 -1.02 5 0 5 C0 3.35 0 1.7 0 0 Z " fill="#A1526D" transform="translate(106,158)"/>
<path d="M0 0 C0.99 0.33 1.98 0.66 3 1 C3 2.98 3 4.96 3 7 C2.01 7 1.02 7 0 7 C0 4.69 0 2.38 0 0 Z " fill="#EFA91B" transform="translate(162,131)"/>
<path d="M0 0 C0.33 1.32 0.66 2.64 1 4 C-0.98 4.99 -0.98 4.99 -3 6 C-3 6.66 -3 7.32 -3 8 C-3.66 8 -4.32 8 -5 8 C-3.62845496 5.04590299 -2.01136276 2.55991624 0 0 Z " fill="#E2AB30" transform="translate(155,60)"/>
<path d="M0 0 C0.33 0.66 0.66 1.32 1 2 C1.66 2 2.32 2 3 2 C2.67 3.98 2.34 5.96 2 8 C1.34 8 0.68 8 0 8 C0 5.36 0 2.72 0 0 Z " fill="#994562" transform="translate(60,192)"/>
<path d="M0 0 C0.66 0 1.32 0 2 0 C2 0.66 2 1.32 2 2 C2.598125 2.268125 3.19625 2.53625 3.8125 2.8125 C5.97224808 3.98493467 7.35790256 5.19369282 9 7 C5.625 6.3125 5.625 6.3125 2 5 C0.5625 2.375 0.5625 2.375 0 0 Z " fill="#9B3E5E" transform="translate(82,106)"/>
<path d="M0 0 C1.98 1.65 3.96 3.3 6 5 C3 6 3 6 0 5 C0 3.35 0 1.7 0 0 Z " fill="#DEAC46" transform="translate(144,105)"/>
<path d="M0 0 C2.96404505 2.80804268 5.44499019 5.18315774 7 9 C4.625 8.4375 4.625 8.4375 2 7 C0.6875 3.375 0.6875 3.375 0 0 Z " fill="#E4C0D0" transform="translate(58,104)"/>
<path d="M0 0 C0 3.53986194 -0.58152803 4.49515403 -3 7 C-4.32 7 -5.64 7 -7 7 C-7 6.34 -7 5.68 -7 5 C-5.35666496 3.96210419 -3.68756133 2.96432076 -2 2 C-1.34 1.34 -0.68 0.68 0 0 Z " fill="#F6E1A5" transform="translate(190,54)"/>
<path d="M0 0 C0.33 0.99 0.66 1.98 1 3 C-0.3125 4.5 -0.3125 4.5 -2 6 C-2.99 6 -3.98 6 -5 6 C-3.63016497 2.83884224 -3.0109362 2.0072908 0 0 Z " fill="#8A425A" transform="translate(65,45)"/>
<path d="M0 0 C0 1.65 0 3.3 0 5 C-0.99 5.33 -1.98 5.66 -3 6 C-3.33 4.68 -3.66 3.36 -4 2 C-1 0 -1 0 0 0 Z " fill="#771737" transform="translate(64,188)"/>
<path d="M0 0 C0.66 0.33 1.32 0.66 2 1 C0.35 2.98 -1.3 4.96 -3 7 C-3.33 5.68 -3.66 4.36 -4 3 C-2.68 2.01 -1.36 1.02 0 0 Z " fill="#E2AB46" transform="translate(161,183)"/>
<path d="M0 0 C0.99 0.33 1.98 0.66 3 1 C2.34 1 1.68 1 1 1 C1 1.66 1 2.32 1 3 C-2.465 4.485 -2.465 4.485 -6 6 C-5.67 4.68 -5.34 3.36 -5 2 C-3.35 2 -1.7 2 0 2 C0 1.34 0 0.68 0 0 Z " fill="#F6E0EB" transform="translate(75,165)"/>
<path d="M0 0 C0.99 0.33 1.98 0.66 3 1 C2.34 2.32 1.68 3.64 1 5 C0.01 4.67 -0.98 4.34 -2 4 C-2 3.01 -2 2.02 -2 1 C-1.34 0.67 -0.68 0.34 0 0 Z " fill="#7C183A" transform="translate(100,152)"/>
<path d="M0 0 C4.27343092 -0.36629408 6.48812804 0.59185923 10 3 C8 4 8 4 5 3.1875 C2 2 2 2 0 0 Z " fill="#E5AE46" transform="translate(102,89)"/>
<path d="M0 0 C0.66 0.33 1.32 0.66 2 1 C-0.97 3.475 -0.97 3.475 -4 6 C-4.33 5.01 -4.66 4.02 -5 3 C-2.625 1.4375 -2.625 1.4375 0 0 Z " fill="#E3B569" transform="translate(152,78)"/>
<path d="M0 0 C0.33 0.66 0.66 1.32 1 2 C0.34 2 -0.32 2 -1 2 C-1.33 3.32 -1.66 4.64 -2 6 C-3.32 6.33 -4.64 6.66 -6 7 C-4.60667426 3.63279613 -3.0210714 2.0140476 0 0 Z " fill="#FCEEC6" transform="translate(156,77)"/>
</svg>
